<svg width="48" height="60" viewBox="0 0 48 60" fill="none" xmlns="http://www.w3.org/2000/svg">
<path fill-rule="evenodd" clip-rule="evenodd" d="M6.52515 0.125786C6.20857 0.310271 6.09485 0.960988 6.00315 3.11214L5.91932 5.07796H3.22003H0.520628L0.269971 5.39673C-0.310098 6.13406 0.0945583 10.3667 1.00755 13.1127C2.29495 16.9844 5.04274 20.3923 8.57215 22.4942C9.37179 22.9705 9.48865 23.0935 9.99758 23.9956C10.9536 25.6904 12.1276 27.227 13.5682 28.6699C15.4627 30.5672 17.3221 31.8084 19.4944 32.626C19.9277 32.7892 20.3504 32.979 20.4335 33.048C20.5501 33.1448 20.5847 34.3448 20.5847 38.2919V43.4103L17.7914 43.4486C15.0233 43.4867 14.9961 43.4896 14.7671 43.7727C14.5566 44.0328 14.536 44.2772 14.536 46.5175V48.9768L12.2499 49.0143C10.2028 49.048 9.93722 49.076 9.70942 49.2823C9.45998 49.5083 9.45514 49.5961 9.45514 53.8491V58.1854H9.41267C5.90589 58.1854 5.85411 58.2304 5.61084 58.3152C5.00185 58.5274 4.85814 59.252 5.31868 59.7883C5.49083 59.9888 6.88142 60 24.0929 60C42.587 60 42.6862 59.999 42.9058 59.7565C43.2078 59.4227 43.1866 58.8373 42.8608 58.5113C42.5961 58.2467 40.764 58.2458 38.546 58.2121L38.6098 58.1784V53.9037C38.6098 49.7621 38.6019 49.619 38.359 49.3102L38.1084 48.9914H35.8274H33.5464L33.5074 46.4634C33.4722 44.1792 33.4461 43.9109 33.238 43.681C33.0166 43.4366 32.8987 43.4266 30.2439 43.4266H27.4802V38.1846V32.9426L28.6811 32.4878C30.912 31.6429 32.7652 30.3884 34.6204 28.4674C36.1679 26.8648 36.9902 25.7392 38.2892 23.4447C38.5194 23.0382 38.7951 22.7728 39.2693 22.5014C42.1025 20.8805 44.7373 18.0007 46.1787 14.9495C47.3486 12.4734 47.7928 10.5812 47.8887 7.66474C47.981 4.8607 48.2422 5.07796 44.7794 5.07796H42.118L42.1121 3.95896C42.1016 1.95321 41.9401 0.510361 41.6959 0.240469C41.4771 -0.00135738 41.3598 -0.00293009 24.1044 0.000699121C12.7182 0.00311859 6.66149 0.0461853 6.52515 0.125786ZM40.3542 2.87019C40.4836 4.54024 40.4519 9.23534 40.3009 10.7637C40.0179 13.629 39.3257 16.8255 38.4935 19.1109C37.9544 20.5914 36.6892 23.1102 35.8503 24.3733C33.6877 27.6291 30.742 30.0037 27.6012 31.0228C26.8637 31.2621 26.2331 31.6825 25.9999 32.0903C25.8855 32.2903 25.8318 33.7427 25.7866 37.8618L25.7261 43.3661L24.1232 43.3999L22.5203 43.4336V38.0953C22.5203 32.2644 22.528 32.3345 21.8062 31.6429C21.6192 31.4636 20.9557 31.1273 20.332 30.8954C13.6747 28.4204 9.13843 21.1924 7.93619 11.1443C7.74433 9.54117 7.67912 4.19232 7.8324 2.63671L7.91369 1.81167H24.0929H40.2722L40.3542 2.87019ZM23.6975 6.31794C23.5878 6.40117 22.9679 7.55792 22.3201 8.88863C21.6723 10.2193 21.0963 11.3399 21.0401 11.3788C20.9839 11.4176 19.7633 11.6258 18.3277 11.8415C16.8921 12.0571 15.5904 12.2914 15.4352 12.3621C15.1039 12.5131 14.8942 13.0222 15.0221 13.3653C15.1036 13.5839 16.2869 14.7782 18.4002 16.7749L19.1795 17.5113L18.7291 20.1559C18.4815 21.6105 18.2804 22.9502 18.2825 23.1333C18.2875 23.5826 18.6799 23.9499 19.1548 23.9499C19.4104 23.9499 20.3446 23.5235 21.9379 22.6796C23.2571 21.981 24.3918 21.4094 24.4594 21.4094C24.5269 21.4094 25.5806 21.981 26.8008 22.6796C29.1555 24.0279 29.5687 24.1599 30.0207 23.7079C30.1537 23.5748 30.2643 23.3162 30.2664 23.1333C30.2684 22.9504 30.0674 21.6103 29.8196 20.1556L29.3692 17.5105L30.0882 16.8359C32.0099 15.0319 33.3397 13.7005 33.4768 13.4426C33.6767 13.0666 33.4939 12.5354 33.1034 12.3574C32.9425 12.2841 31.6386 12.0483 30.2057 11.8335C28.7728 11.6186 27.5553 11.4126 27.5003 11.3755C27.4451 11.3385 26.872 10.2193 26.2264 8.88863C25.5809 7.55792 24.9625 6.40117 24.8522 6.31794C24.7418 6.23483 24.4819 6.16673 24.2744 6.16673C24.0669 6.16673 23.8073 6.23483 23.6975 6.31794ZM5.82702 6.9833C5.83972 8.04883 6.13054 11.472 6.31647 12.7448C6.57959 14.5461 7.30301 17.548 7.80566 18.925C7.97478 19.3883 8.10072 19.7799 8.08547 19.7951C8.00829 19.8722 6.3126 18.3172 5.7404 17.6445C3.40367 14.8976 2.18244 11.8435 1.88848 8.01157L1.80258 6.89257H3.81426C4.92068 6.89257 5.82641 6.93346 5.82702 6.9833ZM46.2926 8.07206C45.9921 12.3849 44.3379 15.982 41.3458 18.8284C40.6882 19.454 40.1282 19.9438 40.1014 19.917C40.0745 19.8902 40.1584 19.5998 40.2877 19.2717C41.0822 17.256 41.9282 13.183 42.1273 10.4146C42.1973 9.44221 42.2829 8.25195 42.3175 7.76963L42.3807 6.89257H44.3777H46.3747L46.2926 8.07206ZM25.1769 11.117C25.7072 12.1762 26.1938 13.0753 26.258 13.1151C26.3224 13.1548 27.1544 13.2938 28.1071 13.4238C29.0598 13.554 30.0233 13.693 30.2482 13.7327L30.6573 13.805L29.1292 15.3494C27.3546 17.1429 27.4428 16.8551 27.9048 19.3412C28.0704 20.2332 28.2061 21.0564 28.2061 21.1708C28.2061 21.3339 27.8208 21.1734 26.4217 20.4277C25.4402 19.9046 24.487 19.476 24.3032 19.4753C24.1194 19.4744 23.0938 19.9121 22.0241 20.4478C20.0959 21.4133 20.0795 21.4188 20.1478 21.0829C20.5145 19.2789 20.8325 17.215 20.7774 16.9958C20.74 16.8468 20.0264 16.084 19.1915 15.3007C18.3566 14.5174 17.696 13.8541 17.7234 13.8265C17.7509 13.7991 18.6789 13.6488 19.7856 13.4928C20.9024 13.3351 21.9181 13.129 22.0683 13.0293C22.2202 12.9284 22.7355 12.0471 23.2429 11.0204C23.7402 10.0143 24.1618 9.19107 24.1797 9.19107C24.1977 9.19107 24.6464 10.0577 25.1769 11.117ZM31.5933 47.1163V48.9914H24.0325H16.4716V47.1163V45.2412H24.0325H31.5933V47.1163ZM36.7952 54.4957V58.1854H24.0929H11.3907V54.4957V50.806H24.0929H36.7952V54.4957Z" fill="#33C1CC"/>
</svg>
