<svg width="59" height="25" viewBox="0 0 59 25" fill="none" xmlns="http://www.w3.org/2000/svg">
<g clip-path="url(#clip0_1_1331)">
<path d="M25.1758 12.5001C25.1758 10.9624 24.8823 9.49568 24.3708 8.13525C24.2355 12.6131 19.6523 16.08 16.9615 18.3743H23.6968C24.6383 16.6225 25.1758 14.624 25.1758 12.5001ZM20.3066 2.64024C18.1741 0.991478 15.5003 0 12.5881 0C5.63595 0 0 5.59677 0 12.5001C0 19.4034 5.63595 25 12.5881 25C15.7716 25 18.6704 23.8172 20.8871 21.8815H11.7737L11.746 19.2238C17.2371 14.4834 20.6033 11.2776 20.6033 8.181C20.6033 7.03017 20.1618 5.57793 18.1753 5.57793C16.6023 5.57793 15.0849 6.48277 15.3607 10.2637H12.1601C11.3598 5.87992 13.7604 2.39965 18.3404 2.39965C19.0505 2.39965 19.7073 2.48382 20.3066 2.64024Z" fill="#A3C626"/>
<path d="M36.8511 8.63964H39.8285C39.9303 6.39076 39.1672 2.82698 34.2558 2.82698C30.6418 2.82698 28.0205 4.97552 28.0205 9.44837C28.0205 10.0549 28.0458 13.1885 28.0458 15.1343C28.0458 19.987 31.4309 21.0481 34.2811 21.0481C35.9862 21.0481 38.4546 20.6688 39.5996 19.4306V11.6975H34.0009V14.5027H36.4952V17.9145C34.6117 18.5461 31.1761 18.799 31.1761 14.5027V9.44837C31.1761 6.44096 32.576 5.40493 34.128 5.40493C35.7315 5.40493 36.8511 6.21366 36.8511 8.63964ZM58.9984 16.145C59.1254 9.22107 51.135 11.5204 51.2108 7.65403C51.2361 6.28967 52.127 5.40493 53.578 5.40493C55.1302 5.40493 56.0457 6.31475 56.0204 8.69052H58.9471C59.0236 6.54204 58.5147 2.87787 53.6798 2.87787C50.6766 2.87787 48.2083 4.34388 48.1571 7.60367C48.03 14.2496 56.0717 12.0765 55.9446 16.0948C55.8934 17.7374 54.6971 18.4701 53.3486 18.4701C51.7711 18.4701 50.4984 17.5603 50.7531 14.831H47.8004C47.4698 18.445 49.0733 21.023 53.3233 21.023C56.9113 21.023 58.9471 19.0514 58.9984 16.145ZM45.5541 20.795H42.5516V3.10516H45.5541V20.795ZM45.5541 20.795H42.5516V3.10516H45.5541V20.795Z" fill="#434242"/>
</g>
<defs>
<clipPath id="clip0_1_1331">
<rect width="59" height="25" fill="white"/>
</clipPath>
</defs>
</svg>
