<svg width="70" height="70" viewBox="0 0 70 70" fill="none" xmlns="http://www.w3.org/2000/svg">
<path d="M10.2513 10.2513C4.52551 15.977 0.962221 23.511 0.168534 31.5694C-0.625153 39.6278 1.39987 47.7122 5.89856 54.445C10.3973 61.1777 17.0913 66.1423 24.84 68.4929C32.5888 70.8435 40.9129 70.4345 48.3939 67.3358C55.875 64.237 62.0501 58.6402 65.8672 51.4989C69.6843 44.3576 70.9072 36.1137 69.3275 28.1718C67.7478 20.23 63.4632 13.0816 57.2038 7.94464C50.9444 2.80768 43.0974 6.11339e-07 35 0V7C41.478 7 47.7555 9.24614 52.763 13.3557C57.7705 17.4653 61.1982 23.184 62.462 29.5375C63.7258 35.8909 62.7475 42.4861 59.6938 48.1991C56.6401 53.9121 51.7 58.3896 45.7151 60.8686C39.7303 63.3476 33.071 63.6748 26.872 61.7943C20.673 59.9139 15.3178 55.9422 11.7189 50.556C8.1199 45.1698 6.49988 38.7023 7.13483 32.2555C7.76978 25.8088 10.6204 19.7816 15.201 15.201L10.2513 10.2513Z" fill="#33C1CC" fill-opacity="0.26"/>
<path d="M29.252 27.76H30.89V35.878H33.194V37.282H30.89V40H29.396V37.282H22.574V35.932L29.252 27.76ZM29.396 35.878V29.794L24.428 35.878H29.396ZM34.9748 42.7H33.8048L34.7948 38.56H36.3248L34.9748 42.7ZM39.1441 27.76H46.4881V29.2H40.5661L40.3501 32.656C40.9981 32.476 41.6941 32.386 42.4381 32.386C43.0501 32.386 43.6201 32.458 44.1481 32.602C44.6761 32.734 45.1621 32.95 45.6061 33.25C46.0621 33.538 46.4221 33.946 46.6861 34.474C46.9501 34.99 47.0821 35.602 47.0821 36.31C47.0821 37.522 46.6321 38.476 45.7321 39.172C44.8441 39.868 43.7101 40.216 42.3301 40.216C40.8421 40.216 39.5341 39.94 38.4061 39.388V37.948C39.4861 38.524 40.7341 38.812 42.1501 38.812C43.1821 38.812 44.0041 38.596 44.6161 38.164C45.2401 37.732 45.5521 37.114 45.5521 36.31C45.5521 34.606 44.3401 33.754 41.9161 33.754C40.8601 33.754 39.8041 33.946 38.7481 34.33L39.1441 27.76Z" fill="#2A2651"/>
</svg>
