<svg width="10" height="12" viewBox="0 0 10 12" fill="none" xmlns="http://www.w3.org/2000/svg">
<path fill-rule="evenodd" clip-rule="evenodd" d="M4.10462 0.0251896C3.27573 0.111826 2.38201 0.479188 1.73571 0.998866C1.54748 1.15022 1.18739 1.50774 1.03172 1.69784C0.379457 2.49431 0 3.55905 0 4.59276C0 5.46815 0.287734 6.42068 0.765665 7.12737C0.840909 7.23862 1.68803 8.38046 2.64818 9.66482L4.39388 12H4.59439H4.79492L6.54059 9.6647C7.50072 8.3803 8.34782 7.23843 8.42306 7.12726C8.49828 7.01608 8.62578 6.79208 8.70637 6.62947C9.34107 5.34889 9.34672 3.86512 8.72179 2.58859C7.8674 0.843455 6.0309 -0.176165 4.10462 0.0251896ZM4.91081 3.10426C5.47449 3.22221 5.96491 3.71264 6.08287 4.27631C6.15457 4.61911 6.11132 4.94531 5.95076 5.27254C5.81358 5.55211 5.55372 5.81198 5.27414 5.94915C4.82277 6.17064 4.36596 6.17064 3.91459 5.94915C3.63501 5.81198 3.37515 5.55211 3.23797 5.27254C3.01648 4.82117 3.01648 4.36436 3.23797 3.91298C3.42958 3.52248 3.84541 3.19593 4.26619 3.10557C4.4671 3.06242 4.70847 3.06192 4.91081 3.10426Z" fill="#39B6C0"/>
</svg>
