<svg width="70" height="70" viewBox="0 0 70 70" fill="none" xmlns="http://www.w3.org/2000/svg">
<path d="M66.5001 35C66.5001 52.397 52.3971 66.5 35.0001 66.5C17.6031 66.5 3.5 52.397 3.5 35C3.5 17.603 17.6031 3.5 35.0001 3.5C52.3971 3.5 66.5001 17.603 66.5001 35Z" stroke="#33C1CC" stroke-opacity="0.26" stroke-width="7"/>
<path d="M24.0348 27.76H31.3788V29.2H25.4568L25.2408 32.656C25.8888 32.476 26.5848 32.386 27.3288 32.386C27.9408 32.386 28.5108 32.458 29.0388 32.602C29.5668 32.734 30.0528 32.95 30.4968 33.25C30.9528 33.538 31.3128 33.946 31.5768 34.474C31.8408 34.99 31.9728 35.602 31.9728 36.31C31.9728 37.522 31.5228 38.476 30.6228 39.172C29.7348 39.868 28.6008 40.216 27.2208 40.216C25.7328 40.216 24.4248 39.94 23.2968 39.388V37.948C24.3768 38.524 25.6248 38.812 27.0408 38.812C28.0728 38.812 28.8948 38.596 29.5068 38.164C30.1308 37.732 30.4428 37.114 30.4428 36.31C30.4428 34.606 29.2308 33.754 26.8068 33.754C25.7508 33.754 24.6948 33.946 23.6388 34.33L24.0348 27.76ZM34.0509 42.7H32.8809L33.8709 38.56H35.4009L34.0509 42.7ZM38.287 38.47C37.375 37.306 36.919 35.776 36.919 33.88C36.919 31.984 37.375 30.454 38.287 29.29C39.199 28.126 40.543 27.544 42.319 27.544C44.107 27.544 45.457 28.126 46.369 29.29C47.281 30.442 47.737 31.972 47.737 33.88C47.737 35.788 47.281 37.324 46.369 38.488C45.457 39.64 44.107 40.216 42.319 40.216C40.543 40.216 39.199 39.634 38.287 38.47ZM45.235 37.516C45.883 36.664 46.207 35.452 46.207 33.88C46.207 32.308 45.883 31.102 45.235 30.262C44.599 29.41 43.627 28.984 42.319 28.984C41.011 28.984 40.039 29.41 39.403 30.262C38.767 31.102 38.449 32.308 38.449 33.88C38.449 35.452 38.767 36.664 39.403 37.516C40.039 38.356 41.011 38.776 42.319 38.776C43.627 38.776 44.599 38.356 45.235 37.516Z" fill="#2A2651"/>
</svg>
