<svg width="70" height="70" viewBox="0 0 70 70" fill="none" xmlns="http://www.w3.org/2000/svg">
<path d="M2.22138 22.7296C-0.409822 29.7585 -0.71191 37.4471 1.35969 44.6607C3.43129 51.8744 7.76685 58.2311 13.7266 62.7929C19.6864 67.3546 26.9547 69.8798 34.459 69.9958C41.9634 70.1118 49.3063 67.8125 55.4042 63.4371C61.5021 59.0617 66.0321 52.8421 68.3256 45.6959C70.6192 38.5497 70.5549 30.8555 68.1422 23.7486C65.7295 16.6418 61.0962 10.4987 54.926 6.22583C48.7558 1.95298 41.3756 -0.2233 33.8742 0.0181107L34.0994 7.01449C40.1004 6.82136 46.0047 8.56239 50.9408 11.9807C55.877 15.3989 59.5836 20.3134 61.5138 25.9989C63.4439 31.6844 63.4954 37.8397 61.6605 43.5567C59.8257 49.2737 56.2017 54.2494 51.3233 57.7497C46.445 61.25 40.5707 63.0895 34.5672 62.9967C28.5638 62.9039 22.7491 60.8837 17.9813 57.2343C13.2135 53.5849 9.74503 48.4995 8.08775 42.7286C6.43047 36.9576 6.67214 30.8068 8.7771 25.1837L2.22138 22.7296Z" fill="#33C1CC" fill-opacity="0.26"/>
<path d="M16.7477 27.76H25.5677V29.128L20.4557 40H18.8357L23.9117 29.2H16.7477V27.76ZM27.2613 30.712C27.2613 29.848 27.6393 29.104 28.3953 28.48C29.1513 27.856 30.2613 27.544 31.7253 27.544C33.0813 27.544 34.1733 27.874 35.0013 28.534C35.8293 29.194 36.2553 29.986 36.2793 30.91C36.3153 32.17 35.7573 33.202 34.6053 34.006C36.0093 34.702 36.7113 35.662 36.7113 36.886C36.7113 37.822 36.2973 38.614 35.4693 39.262C34.6533 39.898 33.4413 40.216 31.8333 40.216C30.2373 40.216 29.0013 39.868 28.1253 39.172C27.2613 38.476 26.8293 37.63 26.8293 36.634C26.8293 36.034 27.0033 35.44 27.3513 34.852C27.7113 34.252 28.2333 33.748 28.9173 33.34C27.8133 32.668 27.2613 31.792 27.2613 30.712ZM31.9053 34.492C31.2813 34.324 30.7113 34.144 30.1953 33.952C29.5953 34.24 29.1333 34.612 28.8093 35.068C28.4973 35.524 28.3413 35.992 28.3413 36.472C28.3413 37.204 28.6413 37.78 29.2413 38.2C29.8533 38.608 30.7293 38.812 31.8693 38.812C32.8293 38.812 33.6213 38.644 34.2453 38.308C34.8813 37.96 35.1993 37.51 35.1993 36.958C35.1993 36.49 35.0313 36.094 34.6953 35.77C34.3713 35.434 34.0533 35.206 33.7413 35.086C33.4293 34.966 32.9133 34.798 32.1933 34.582C32.0613 34.546 31.9653 34.516 31.9053 34.492ZM34.7673 31.18C34.7673 30.544 34.4973 30.016 33.9573 29.596C33.4173 29.164 32.6613 28.948 31.6893 28.948C30.8013 28.948 30.0933 29.116 29.5653 29.452C29.0373 29.776 28.7733 30.19 28.7733 30.694C28.7733 31.042 28.8453 31.348 28.9893 31.612C29.1453 31.864 29.3733 32.08 29.6733 32.26C29.9853 32.428 30.2673 32.566 30.5193 32.674C30.7713 32.77 31.1073 32.878 31.5273 32.998C31.5753 33.01 31.6113 33.022 31.6353 33.034C31.6593 33.034 31.6893 33.04 31.7253 33.052C31.7613 33.064 31.7973 33.076 31.8333 33.088C31.8693 33.1 32.0733 33.16 32.4453 33.268C32.8293 33.364 33.1233 33.442 33.3273 33.502C34.2873 32.878 34.7673 32.104 34.7673 31.18ZM42.7136 41.08H41.2736L48.6356 26.32H50.0756L42.7136 41.08ZM43.2356 27.94C43.8116 28.444 44.0996 29.134 44.0996 30.01C44.0996 30.886 43.8116 31.576 43.2356 32.08C42.6716 32.584 41.9816 32.836 41.1656 32.836C40.3376 32.836 39.6356 32.584 39.0596 32.08C38.4836 31.576 38.1956 30.886 38.1956 30.01C38.1956 29.134 38.4836 28.444 39.0596 27.94C39.6356 27.436 40.3376 27.184 41.1656 27.184C41.9816 27.184 42.6716 27.436 43.2356 27.94ZM39.9776 28.894C39.7016 29.194 39.5636 29.566 39.5636 30.01C39.5636 30.454 39.7016 30.826 39.9776 31.126C40.2656 31.426 40.6616 31.576 41.1656 31.576C41.6576 31.576 42.0416 31.426 42.3176 31.126C42.5936 30.826 42.7316 30.454 42.7316 30.01C42.7316 29.566 42.5936 29.194 42.3176 28.894C42.0416 28.594 41.6576 28.444 41.1656 28.444C40.6616 28.444 40.2656 28.594 39.9776 28.894ZM52.2716 35.32C52.8476 35.824 53.1356 36.514 53.1356 37.39C53.1356 38.266 52.8476 38.956 52.2716 39.46C51.7076 39.964 51.0176 40.216 50.2016 40.216C49.3736 40.216 48.6716 39.964 48.0956 39.46C47.5196 38.956 47.2316 38.266 47.2316 37.39C47.2316 36.514 47.5196 35.824 48.0956 35.32C48.6716 34.816 49.3736 34.564 50.2016 34.564C51.0176 34.564 51.7076 34.816 52.2716 35.32ZM49.0136 36.274C48.7376 36.574 48.5996 36.946 48.5996 37.39C48.5996 37.834 48.7376 38.206 49.0136 38.506C49.3016 38.806 49.6976 38.956 50.2016 38.956C50.6936 38.956 51.0776 38.806 51.3536 38.506C51.6296 38.206 51.7676 37.834 51.7676 37.39C51.7676 36.946 51.6296 36.574 51.3536 36.274C51.0776 35.974 50.6936 35.824 50.2016 35.824C49.6976 35.824 49.3016 35.974 49.0136 36.274Z" fill="#2A2651"/>
</svg>
