<svg width="220" height="46" viewBox="0 0 220 46" fill="none" xmlns="http://www.w3.org/2000/svg">
<rect width="220" height="46" fill="#33C1CC"/>
<path d="M68.125 27H66.865V19.5V18.6L60.55 27H59.38V16.5H60.64V23.985V24.885L66.955 16.5H68.125V27ZM71.809 27H70.609V19.8H71.809V22.845H75.979V19.8H77.179V27H75.979V23.955H71.809V27ZM82.3981 27H81.1981V20.91H78.5431V19.8H85.0381V20.91H82.3981V27ZM85.6707 23.4C85.6707 22.22 86.0307 21.295 86.7507 20.625C87.4807 19.955 88.3157 19.62 89.2557 19.62C90.1357 19.62 90.8607 19.84 91.4307 20.28C92.0107 20.72 92.3907 21.265 92.5707 21.915C92.7507 22.555 92.7607 23.225 92.6007 23.925H86.8707C86.9407 24.635 87.2557 25.17 87.8157 25.53C88.3757 25.89 89.0507 26.07 89.8407 26.07C90.7207 26.07 91.5107 25.875 92.2107 25.485V26.655C91.5407 27.005 90.6907 27.18 89.6607 27.18C88.5207 27.18 87.5707 26.855 86.8107 26.205C86.0507 25.555 85.6707 24.62 85.6707 23.4ZM91.5357 22.875C91.5657 22.665 91.5507 22.445 91.4907 22.215C91.4307 21.985 91.3207 21.755 91.1607 21.525C91.0107 21.295 90.7757 21.105 90.4557 20.955C90.1357 20.805 89.7607 20.73 89.3307 20.73C88.6807 20.73 88.1157 20.92 87.6357 21.3C87.1657 21.68 86.9107 22.205 86.8707 22.875H91.5357ZM95.4341 21C96.2441 20.08 97.2141 19.62 98.3441 19.62C99.3741 19.62 100.229 19.98 100.909 20.7C101.599 21.42 101.944 22.32 101.944 23.4C101.944 24.48 101.599 25.38 100.909 26.1C100.229 26.82 99.3741 27.18 98.3441 27.18C97.2041 27.18 96.2741 26.76 95.5541 25.92V30.3H94.3541V19.8H95.4341V21ZM100.009 25.335C100.499 24.845 100.744 24.2 100.744 23.4C100.744 22.6 100.499 21.955 100.009 21.465C99.5291 20.975 98.9291 20.73 98.2091 20.73C97.5991 20.73 97.0591 20.9 96.5891 21.24C96.1191 21.58 95.7741 22 95.5541 22.5V24.3C95.7741 24.8 96.1191 25.22 96.5891 25.56C97.0591 25.9 97.5991 26.07 98.2091 26.07C98.9291 26.07 99.5291 25.825 100.009 25.335ZM104.871 27H103.671V19.8H104.871V22.845H109.041V19.8H110.241V27H109.041V23.955H104.871V27ZM111.965 23.4C111.965 22.22 112.325 21.295 113.045 20.625C113.775 19.955 114.61 19.62 115.55 19.62C116.43 19.62 117.155 19.84 117.725 20.28C118.305 20.72 118.685 21.265 118.865 21.915C119.045 22.555 119.055 23.225 118.895 23.925H113.165C113.235 24.635 113.55 25.17 114.11 25.53C114.67 25.89 115.345 26.07 116.135 26.07C117.015 26.07 117.805 25.875 118.505 25.485V26.655C117.835 27.005 116.985 27.18 115.955 27.18C114.815 27.18 113.865 26.855 113.105 26.205C112.345 25.555 111.965 24.62 111.965 23.4ZM117.83 22.875C117.86 22.665 117.845 22.445 117.785 22.215C117.725 21.985 117.615 21.755 117.455 21.525C117.305 21.295 117.07 21.105 116.75 20.955C116.43 20.805 116.055 20.73 115.625 20.73C114.975 20.73 114.41 20.92 113.93 21.3C113.46 21.68 113.205 22.205 113.165 22.875H117.83ZM123.502 27H122.302V20.91H119.647V19.8H126.142V20.91H123.502V27ZM126.592 22.71H131.947V23.85H126.592V22.71ZM135.162 27H134.022V19.8H135.327L137.952 23.79L140.577 19.8H141.882V27H140.742V21.57L138.402 25.125H137.502L135.162 21.57V27ZM149.95 25.5C149.95 25.87 150.135 26.055 150.505 26.055C150.665 26.055 150.85 26.02 151.06 25.95V26.925C150.76 27.035 150.46 27.09 150.16 27.09C149.47 27.09 149.03 26.8 148.84 26.22C148.07 26.86 147.135 27.18 146.035 27.18C145.335 27.18 144.735 26.995 144.235 26.625C143.745 26.245 143.5 25.7 143.5 24.99C143.5 24.14 143.815 23.525 144.445 23.145C145.085 22.755 145.855 22.56 146.755 22.56C147.415 22.56 148.08 22.635 148.75 22.785V22.53C148.75 21.98 148.57 21.545 148.21 21.225C147.85 20.895 147.345 20.73 146.695 20.73C145.785 20.73 144.91 20.91 144.07 21.27V20.1C145.01 19.78 145.925 19.62 146.815 19.62C147.795 19.62 148.56 19.885 149.11 20.415C149.67 20.935 149.95 21.69 149.95 22.68V25.5ZM144.73 24.93C144.73 25.33 144.88 25.635 145.18 25.845C145.49 26.045 145.86 26.145 146.29 26.145C147.28 26.145 148.1 25.795 148.75 25.095V23.775C148.07 23.635 147.46 23.565 146.92 23.565C146.31 23.565 145.79 23.675 145.36 23.895C144.94 24.105 144.73 24.45 144.73 24.93ZM153.547 27H152.347V19.8H157.612V20.91H153.547V27ZM164.745 25.5C164.745 25.87 164.93 26.055 165.3 26.055C165.46 26.055 165.645 26.02 165.855 25.95V26.925C165.555 27.035 165.255 27.09 164.955 27.09C164.265 27.09 163.825 26.8 163.635 26.22C162.865 26.86 161.93 27.18 160.83 27.18C160.13 27.18 159.53 26.995 159.03 26.625C158.54 26.245 158.295 25.7 158.295 24.99C158.295 24.14 158.61 23.525 159.24 23.145C159.88 22.755 160.65 22.56 161.55 22.56C162.21 22.56 162.875 22.635 163.545 22.785V22.53C163.545 21.98 163.365 21.545 163.005 21.225C162.645 20.895 162.14 20.73 161.49 20.73C160.58 20.73 159.705 20.91 158.865 21.27V20.1C159.805 19.78 160.72 19.62 161.61 19.62C162.59 19.62 163.355 19.885 163.905 20.415C164.465 20.935 164.745 21.69 164.745 22.68V25.5ZM159.525 24.93C159.525 25.33 159.675 25.635 159.975 25.845C160.285 26.045 160.655 26.145 161.085 26.145C162.075 26.145 162.895 25.795 163.545 25.095V23.775C162.865 23.635 162.255 23.565 161.715 23.565C161.105 23.565 160.585 23.675 160.155 23.895C159.735 24.105 159.525 24.45 159.525 24.93ZM172.527 25.065C172.527 25.735 172.237 26.255 171.657 26.625C171.087 26.995 170.297 27.18 169.287 27.18C168.277 27.18 167.392 26.995 166.632 26.625V25.485C167.362 25.875 168.197 26.07 169.137 26.07C170.597 26.07 171.327 25.69 171.327 24.93C171.327 24.24 170.797 23.895 169.737 23.895H168.162V22.785H169.737C170.697 22.785 171.177 22.475 171.177 21.855C171.177 21.475 170.997 21.19 170.637 21C170.277 20.81 169.797 20.715 169.197 20.715C168.327 20.715 167.512 20.905 166.752 21.285V20.16C167.562 19.79 168.422 19.605 169.332 19.605C170.312 19.605 171.062 19.795 171.582 20.175C172.112 20.545 172.377 21.05 172.377 21.69C172.377 22.12 172.257 22.475 172.017 22.755C171.777 23.035 171.452 23.22 171.042 23.31C171.472 23.42 171.827 23.63 172.107 23.94C172.387 24.25 172.527 24.625 172.527 25.065ZM175.311 27H174.291V19.8H175.491V25.065L179.901 19.8H180.921V27H179.721V21.735L175.311 27ZM184.338 27H183.138V19.8H184.338V22.845H188.508V19.8H189.708V27H188.508V23.955H184.338V27Z" fill="white"/>
<g clip-path="url(#clip0_1_2293)">
<path d="M38.3861 28.7354C37.4163 28.7354 36.6272 29.5244 36.6272 30.4943C36.6272 31.4642 37.4163 32.2532 38.3861 32.2532C39.356 32.2532 40.1451 31.4642 40.1451 30.4943C40.1451 29.5244 39.356 28.7354 38.3861 28.7354ZM38.3861 31.2711C37.9578 31.2711 37.6093 30.9225 37.6093 30.4942C37.6093 30.0659 37.9578 29.7174 38.3861 29.7174C38.8145 29.7174 39.163 30.0659 39.163 30.4942C39.163 30.9226 38.8145 31.2711 38.3861 31.2711Z" fill="white"/>
<path d="M44.5559 28.7354C43.586 28.7354 42.7969 29.5244 42.7969 30.4943C42.7969 31.4642 43.586 32.2532 44.5559 32.2532C45.5258 32.2532 46.3148 31.4642 46.3148 30.4943C46.3148 29.5244 45.5257 28.7354 44.5559 28.7354ZM44.5559 31.2711C44.1275 31.2711 43.779 30.9225 43.779 30.4942C43.779 30.0659 44.1276 29.7174 44.5559 29.7174C44.9842 29.7174 45.3327 30.0659 45.3327 30.4942C45.3327 30.9226 44.9842 31.2711 44.5559 31.2711Z" fill="white"/>
<path d="M49.779 17.2868C49.5917 17.057 49.3142 16.9252 49.0177 16.9252H33.7218L33.4129 15.4256C33.3484 15.1128 33.135 14.8501 32.842 14.7229L30.6867 13.7874C30.4378 13.6793 30.1487 13.7935 30.0407 14.0422C29.9327 14.291 30.0469 14.5803 30.2956 14.6882L32.451 15.6238L34.827 27.1574C34.9206 27.6116 35.3251 27.9413 35.7889 27.9413H47.5532C47.8245 27.9413 48.0443 27.7215 48.0443 27.4503C48.0443 27.1791 47.8245 26.9592 47.5532 26.9592H35.7889L35.4999 25.5563H47.6442C48.1079 25.5563 48.5125 25.2266 48.6061 24.7723L49.9796 18.1053C50.0394 17.815 49.9663 17.5166 49.779 17.2868ZM47.6442 24.5742H35.2976L33.9241 17.9073L49.0177 17.9073L47.6442 24.5742Z" fill="white"/>
</g>
<defs>
<clipPath id="clip0_1_2293">
<rect width="20" height="20" fill="white" transform="translate(30 13)"/>
</clipPath>
</defs>
</svg>
