<svg width="180" height="66" viewBox="0 0 180 66" fill="none" xmlns="http://www.w3.org/2000/svg">
<g filter="url(#filter0_d_1_1689)">
<rect x="10" y="2" width="160" height="46" rx="3" fill="url(#paint0_linear_1_1689)"/>
<rect x="10" y="2" width="160" height="46" rx="3" fill="#39B6C0"/>
</g>
<path d="M37.786 28H36.19V18.2H44.422V28H42.826V19.67H37.786V28ZM47.0273 27.244C46.318 26.6187 45.9633 25.7507 45.9633 24.64C45.9633 23.5293 46.318 22.6613 47.0273 22.036C47.746 21.4107 48.6046 21.098 49.6033 21.098C50.6113 21.098 51.47 21.4107 52.1793 22.036C52.8886 22.6613 53.2433 23.5293 53.2433 24.64C53.2433 25.7507 52.8886 26.6187 52.1793 27.244C51.47 27.8693 50.6113 28.182 49.6033 28.182C48.6046 28.182 47.746 27.8693 47.0273 27.244ZM51.1293 26.222C51.5213 25.8207 51.7173 25.2933 51.7173 24.64C51.7173 23.9867 51.5213 23.464 51.1293 23.072C50.7373 22.6707 50.2286 22.47 49.6033 22.47C48.9686 22.47 48.4553 22.6707 48.0633 23.072C47.6713 23.464 47.4753 23.9867 47.4753 24.64C47.4753 25.2933 47.6713 25.8207 48.0633 26.222C48.4553 26.614 48.9686 26.81 49.6033 26.81C50.2286 26.81 50.7373 26.614 51.1293 26.222ZM55.3438 29.806H53.9298V26.768H54.8538C55.5911 25.4613 55.9458 23.632 55.9178 21.28H61.1678V26.768H62.1618V29.806H60.7478V28H55.3438V29.806ZM57.3178 22.512C57.2618 24.192 56.9631 25.6107 56.4218 26.768H59.6558V22.512H57.3178ZM64.8578 22.33C65.5392 21.5087 66.4025 21.098 67.4478 21.098C68.4372 21.098 69.2398 21.4433 69.8558 22.134C70.4718 22.8153 70.7798 23.6507 70.7798 24.64C70.7798 25.6293 70.4718 26.4693 69.8558 27.16C69.2398 27.8413 68.4372 28.182 67.4478 28.182C66.4398 28.182 65.6325 27.832 65.0258 27.132V31.08H63.5278V21.28H64.8578V22.33ZM68.6658 26.25C69.0578 25.83 69.2538 25.2933 69.2538 24.64C69.2538 23.9867 69.0578 23.4547 68.6658 23.044C68.2738 22.624 67.7745 22.414 67.1678 22.414C66.6732 22.414 66.2345 22.5493 65.8518 22.82C65.4785 23.0907 65.2032 23.422 65.0258 23.814V25.452C65.2032 25.8533 65.4785 26.1893 65.8518 26.46C66.2345 26.7307 66.6732 26.866 67.1678 26.866C67.7745 26.866 68.2738 26.6607 68.6658 26.25ZM72.8808 27.244C72.1715 26.6187 71.8168 25.7507 71.8168 24.64C71.8168 23.5293 72.1715 22.6613 72.8808 22.036C73.5995 21.4107 74.4582 21.098 75.4568 21.098C76.4648 21.098 77.3235 21.4107 78.0328 22.036C78.7422 22.6613 79.0968 23.5293 79.0968 24.64C79.0968 25.7507 78.7422 26.6187 78.0328 27.244C77.3235 27.8693 76.4648 28.182 75.4568 28.182C74.4582 28.182 73.5995 27.8693 72.8808 27.244ZM76.9828 26.222C77.3748 25.8207 77.5708 25.2933 77.5708 24.64C77.5708 23.9867 77.3748 23.464 76.9828 23.072C76.5908 22.6707 76.0822 22.47 75.4568 22.47C74.8222 22.47 74.3088 22.6707 73.9168 23.072C73.5248 23.464 73.3288 23.9867 73.3288 24.64C73.3288 25.2933 73.5248 25.8207 73.9168 26.222C74.3088 26.614 74.8222 26.81 75.4568 26.81C76.0822 26.81 76.5908 26.614 76.9828 26.222ZM87.2693 24.878C87.2693 25.914 86.9473 26.726 86.3033 27.314C85.6593 27.8927 84.8147 28.182 83.7693 28.182C82.724 28.182 81.8747 27.8413 81.2213 27.16C80.568 26.4787 80.2413 25.4893 80.2413 24.192C80.2413 23.0813 80.428 22.1433 80.8013 21.378C81.1747 20.6127 81.6787 20.0293 82.3133 19.628C82.8547 19.3013 83.4287 19.068 84.0353 18.928C84.642 18.7787 85.1647 18.6573 85.6033 18.564C86.0513 18.4613 86.406 18.2793 86.6673 18.018V19.474C86.35 19.7167 85.8087 19.9127 85.0433 20.062C84.2873 20.202 83.6713 20.4027 83.1953 20.664C82.5047 21.0653 82.0287 21.7747 81.7673 22.792C82.0007 22.4467 82.3227 22.1667 82.7333 21.952C83.1533 21.728 83.6153 21.616 84.1193 21.616C84.9967 21.616 85.7387 21.9147 86.3453 22.512C86.9613 23.1093 87.2693 23.898 87.2693 24.878ZM81.7533 24.906C81.7533 25.4567 81.926 25.928 82.2713 26.32C82.626 26.7027 83.116 26.894 83.7413 26.894C84.376 26.894 84.866 26.7027 85.2113 26.32C85.566 25.9373 85.7433 25.466 85.7433 24.906C85.7433 24.346 85.566 23.8747 85.2113 23.492C84.866 23.1093 84.376 22.918 83.7413 22.918C83.1347 22.918 82.6493 23.1233 82.2853 23.534C81.9307 23.9353 81.7533 24.3927 81.7533 24.906ZM90.2368 28H88.7388V21.28H90.2368V23.982H93.5968V21.28H95.0948V28H93.5968V25.298H90.2368V28ZM96.5493 24.64C96.5493 24.0613 96.6519 23.5387 96.8573 23.072C97.0626 22.596 97.3333 22.2227 97.6693 21.952C98.0053 21.672 98.3693 21.462 98.7613 21.322C99.1533 21.1727 99.5499 21.098 99.9513 21.098C100.465 21.098 100.927 21.1773 101.337 21.336C101.757 21.4947 102.093 21.7093 102.345 21.98C102.597 22.2507 102.803 22.5633 102.961 22.918C103.12 23.2727 103.204 23.646 103.213 24.038C103.223 24.4207 103.19 24.808 103.115 25.2H98.0613C98.1359 25.7693 98.4159 26.1987 98.9013 26.488C99.3866 26.768 99.9653 26.908 100.637 26.908C101.403 26.908 102.112 26.7493 102.765 26.432V27.72C102.121 28.028 101.319 28.182 100.357 28.182C99.2653 28.182 98.3553 27.874 97.6273 27.258C96.9086 26.642 96.5493 25.7693 96.5493 24.64ZM101.771 24.08C101.827 23.6973 101.711 23.3147 101.421 22.932C101.141 22.54 100.675 22.344 100.021 22.344C99.4893 22.344 99.0319 22.498 98.6493 22.806C98.2759 23.114 98.0753 23.5387 98.0473 24.08H101.771ZM104.192 24.64C104.192 24.0613 104.294 23.5387 104.5 23.072C104.705 22.596 104.976 22.2227 105.312 21.952C105.648 21.672 106.012 21.462 106.404 21.322C106.796 21.1727 107.192 21.098 107.594 21.098C108.107 21.098 108.569 21.1773 108.98 21.336C109.4 21.4947 109.736 21.7093 109.988 21.98C110.24 22.2507 110.445 22.5633 110.604 22.918C110.762 23.2727 110.846 23.646 110.856 24.038C110.865 24.4207 110.832 24.808 110.758 25.2H105.704C105.778 25.7693 106.058 26.1987 106.544 26.488C107.029 26.768 107.608 26.908 108.28 26.908C109.045 26.908 109.754 26.7493 110.408 26.432V27.72C109.764 28.028 108.961 28.182 108 28.182C106.908 28.182 105.998 27.874 105.27 27.258C104.551 26.642 104.192 25.7693 104.192 24.64ZM109.414 24.08C109.47 23.6973 109.353 23.3147 109.064 22.932C108.784 22.54 108.317 22.344 107.664 22.344C107.132 22.344 106.674 22.498 106.292 22.806C105.918 23.114 105.718 23.5387 105.69 24.08H109.414Z" fill="white"/>
<g clip-path="url(#clip0_1_1689)">
<path d="M140.678 24.2206L136.756 20.3187C136.373 19.9375 135.742 19.8808 135.339 20.2424C134.91 20.6268 134.897 21.2857 135.3 21.6876L137.078 23.4565C137.279 23.6563 137.137 23.9973 136.853 23.9973H130.443C129.9 23.9973 129.415 24.4012 129.386 24.94C129.356 25.514 129.815 25.9899 130.386 25.9899H136.853C137.137 25.9899 137.279 26.3312 137.078 26.5306L135.34 28.2597C134.957 28.6409 134.901 29.2684 135.263 29.6688C135.65 30.0962 136.313 30.1091 136.716 29.7079L140.678 25.7662C141.107 25.3396 141.107 24.6471 140.678 24.2206Z" fill="white"/>
<path d="M126.676 23.9973H125.522C124.969 23.9973 124.521 24.4435 124.521 24.9936C124.521 25.5437 124.969 25.9899 125.522 25.9899H126.676C127.229 25.9899 127.677 25.5437 127.677 24.9936C127.677 24.4435 127.229 23.9973 126.676 23.9973Z" fill="white"/>
<path d="M122.109 23.9973H122.001C121.448 23.9973 121 24.4438 121 24.994C121 25.5441 121.448 25.9903 122.001 25.9903H122.109C122.662 25.9903 123.11 25.5441 123.11 24.994C123.11 24.4438 122.662 23.9973 122.109 23.9973Z" fill="white"/>
</g>
<defs>
<filter id="filter0_d_1_1689" x="0" y="0" width="180" height="66" filterUnits="userSpaceOnUse" color-interpolation-filters="sRGB">
<feFlood flood-opacity="0" result="BackgroundImageFix"/>
<feColorMatrix in="SourceAlpha" type="matrix" values="0 0 0 0 0 0 0 0 0 0 0 0 0 0 0 0 0 0 127 0" result="hardAlpha"/>
<feOffset dy="8"/>
<feGaussianBlur stdDeviation="5"/>
<feComposite in2="hardAlpha" operator="out"/>
<feColorMatrix type="matrix" values="0 0 0 0 0.00784314 0 0 0 0 0.556863 0 0 0 0 0.807843 0 0 0 0.32 0"/>
<feBlend mode="normal" in2="BackgroundImageFix" result="effect1_dropShadow_1_1689"/>
<feBlend mode="normal" in="SourceGraphic" in2="effect1_dropShadow_1_1689" result="shape"/>
</filter>
<linearGradient id="paint0_linear_1_1689" x1="10" y1="21.3322" x2="170" y2="21.3322" gradientUnits="userSpaceOnUse">
<stop stop-color="#0C669C"/>
<stop offset="1" stop-color="#3BBAC2"/>
</linearGradient>
<clipPath id="clip0_1_1689">
<rect width="20" height="10" fill="white" transform="translate(121 20)"/>
</clipPath>
</defs>
</svg>
