<svg width="250" height="70" viewBox="0 0 250 70" fill="none" xmlns="http://www.w3.org/2000/svg">
<g filter="url(#filter0_d_1_1568)">
<rect x="10" y="2" width="230" height="50" rx="3" fill="url(#paint0_linear_1_1568)"/>
</g>
<path d="M91.3328 28.96C91.3328 29.7387 91.0981 30.384 90.6288 30.896C90.1595 31.3973 89.5995 31.744 88.9488 31.936C88.3088 32.1173 87.5995 32.208 86.8208 32.208C85.3915 32.208 84.0368 31.968 82.7568 31.488V29.712C83.9088 30.2667 85.2155 30.5333 86.6768 30.512C88.5435 30.512 89.4768 29.92 89.4768 28.736C89.4768 27.6053 88.6288 27.04 86.9328 27.04H84.5328V25.376H86.7728C87.4661 25.376 88.0155 25.248 88.4208 24.992C88.8261 24.7253 89.0288 24.3467 89.0288 23.856C89.0288 22.8107 88.1701 22.288 86.4528 22.288C85.3008 22.2667 84.1328 22.5387 82.9488 23.104V21.312C84.0901 20.832 85.3061 20.592 86.5968 20.592C87.8981 20.592 88.9381 20.848 89.7168 21.36C90.4955 21.872 90.8848 22.6187 90.8848 23.6C90.8848 24.2293 90.7195 24.7627 90.3888 25.2C90.0581 25.6267 89.6155 25.9307 89.0608 26.112C89.6901 26.2613 90.2235 26.576 90.6608 27.056C91.1088 27.5253 91.3328 28.16 91.3328 28.96ZM99.6238 30.224C99.6238 30.5973 99.8105 30.784 100.184 30.784C100.312 30.784 100.482 30.752 100.696 30.688V31.92C100.376 32.048 100.013 32.112 99.6078 32.112C98.8398 32.112 98.3278 31.8133 98.0718 31.216C97.2505 31.8773 96.2851 32.208 95.1758 32.208C94.4291 32.208 93.7945 32.0053 93.2718 31.6C92.7491 31.184 92.4878 30.6027 92.4878 29.856C92.4878 28.96 92.8238 28.3093 93.4958 27.904C94.1678 27.488 94.9731 27.28 95.9118 27.28C96.5305 27.28 97.1971 27.3547 97.9118 27.504V27.232C97.9118 26.7413 97.7358 26.3467 97.3838 26.048C97.0318 25.7493 96.5358 25.6 95.8958 25.6C94.9465 25.6 94.0238 25.7973 93.1278 26.192V24.624C94.1305 24.2827 95.1118 24.112 96.0718 24.112C97.1918 24.112 98.0611 24.3893 98.6798 24.944C99.3091 25.4987 99.6238 26.3413 99.6238 27.472V30.224ZM96.2478 28.48C95.6825 28.48 95.2078 28.5813 94.8238 28.784C94.4398 28.9867 94.2478 29.3067 94.2478 29.744C94.2478 30.1067 94.3865 30.3893 94.6638 30.592C94.9411 30.784 95.2825 30.88 95.6878 30.88C96.5625 30.88 97.3038 30.576 97.9118 29.968V28.672C97.2931 28.544 96.7385 28.48 96.2478 28.48ZM103.698 32H101.986V24.32H109.25V32H107.538V25.824H103.698V32ZM112.864 32H111.392V24.32H113.104V29.344L117.216 24.32H118.688V32H116.976V26.976L112.864 32ZM120.35 28.224C120.35 26.8907 120.771 25.872 121.614 25.168C122.456 24.464 123.448 24.112 124.59 24.112C125.507 24.112 126.296 24.3093 126.958 24.704V26.272C126.36 25.8453 125.651 25.632 124.83 25.632C124.072 25.632 123.427 25.8453 122.894 26.272C122.36 26.688 122.094 27.3173 122.094 28.16C122.094 28.9813 122.355 29.6107 122.878 30.048C123.411 30.4747 124.051 30.688 124.798 30.688C125.608 30.688 126.355 30.4907 127.038 30.096V31.68C126.302 32.032 125.454 32.208 124.494 32.208C123.374 32.208 122.403 31.8667 121.582 31.184C120.76 30.4907 120.35 29.504 120.35 28.224ZM135.296 30.224C135.296 30.5973 135.482 30.784 135.856 30.784C135.984 30.784 136.154 30.752 136.368 30.688V31.92C136.048 32.048 135.685 32.112 135.28 32.112C134.512 32.112 134 31.8133 133.744 31.216C132.922 31.8773 131.957 32.208 130.848 32.208C130.101 32.208 129.466 32.0053 128.944 31.6C128.421 31.184 128.16 30.6027 128.16 29.856C128.16 28.96 128.496 28.3093 129.168 27.904C129.84 27.488 130.645 27.28 131.584 27.28C132.202 27.28 132.869 27.3547 133.584 27.504V27.232C133.584 26.7413 133.408 26.3467 133.056 26.048C132.704 25.7493 132.208 25.6 131.568 25.6C130.618 25.6 129.696 25.7973 128.8 26.192V24.624C129.802 24.2827 130.784 24.112 131.744 24.112C132.864 24.112 133.733 24.3893 134.352 24.944C134.981 25.4987 135.296 26.3413 135.296 27.472V30.224ZM131.92 28.48C131.354 28.48 130.88 28.5813 130.496 28.784C130.112 28.9867 129.92 29.3067 129.92 29.744C129.92 30.1067 130.058 30.3893 130.336 30.592C130.613 30.784 130.954 30.88 131.36 30.88C132.234 30.88 132.976 30.576 133.584 29.968V28.672C132.965 28.544 132.41 28.48 131.92 28.48ZM140.913 32H139.201V25.824H136.545V24.32H143.553V25.824H140.913V32ZM148.7 32H144.892V24.32H146.604V26.88H148.7C149.639 26.88 150.38 27.12 150.924 27.6C151.468 28.08 151.74 28.6933 151.74 29.44C151.74 30.1867 151.468 30.8 150.924 31.28C150.38 31.76 149.639 32 148.7 32ZM146.604 28.224V30.64H148.364C148.876 30.64 149.276 30.5387 149.564 30.336C149.852 30.1227 149.996 29.824 149.996 29.44C149.996 29.0453 149.852 28.7467 149.564 28.544C149.276 28.3307 148.876 28.224 148.364 28.224H146.604ZM152.756 28.224C152.756 26.8907 153.177 25.872 154.02 25.168C154.863 24.464 155.855 24.112 156.996 24.112C157.913 24.112 158.703 24.3093 159.364 24.704V26.272C158.767 25.8453 158.057 25.632 157.236 25.632C156.479 25.632 155.833 25.8453 155.3 26.272C154.767 26.688 154.5 27.3173 154.5 28.16C154.5 28.9813 154.761 29.6107 155.284 30.048C155.817 30.4747 156.457 30.688 157.204 30.688C158.015 30.688 158.761 30.4907 159.444 30.096V31.68C158.708 32.032 157.86 32.208 156.9 32.208C155.78 32.208 154.809 31.8667 153.988 31.184C153.167 30.4907 152.756 29.504 152.756 28.224ZM162.438 32H160.47L162.582 29.296C162.038 29.104 161.617 28.7947 161.318 28.368C161.019 27.9413 160.87 27.456 160.87 26.912C160.87 26.176 161.131 25.5627 161.654 25.072C162.187 24.5707 162.913 24.32 163.83 24.32H167.798V32H166.086V29.488H164.342L162.438 32ZM163.014 26.064C162.747 26.2667 162.614 26.5547 162.614 26.928C162.614 27.3013 162.747 27.5947 163.014 27.808C163.281 28.0107 163.649 28.112 164.118 28.112H166.086V25.744H164.118C163.649 25.744 163.281 25.8507 163.014 26.064Z" fill="white"/>
<defs>
<filter id="filter0_d_1_1568" x="0" y="0" width="250" height="70" filterUnits="userSpaceOnUse" color-interpolation-filters="sRGB">
<feFlood flood-opacity="0" result="BackgroundImageFix"/>
<feColorMatrix in="SourceAlpha" type="matrix" values="0 0 0 0 0 0 0 0 0 0 0 0 0 0 0 0 0 0 127 0" result="hardAlpha"/>
<feOffset dy="8"/>
<feGaussianBlur stdDeviation="5"/>
<feComposite in2="hardAlpha" operator="out"/>
<feColorMatrix type="matrix" values="0 0 0 0 0.00784314 0 0 0 0 0.556863 0 0 0 0 0.807843 0 0 0 0.32 0"/>
<feBlend mode="normal" in2="BackgroundImageFix" result="effect1_dropShadow_1_1568"/>
<feBlend mode="normal" in="SourceGraphic" in2="effect1_dropShadow_1_1568" result="shape"/>
</filter>
<linearGradient id="paint0_linear_1_1568" x1="10" y1="23.0133" x2="240" y2="23.0133" gradientUnits="userSpaceOnUse">
<stop stop-color="#0C669C"/>
<stop offset="1" stop-color="#3BBAC2"/>
</linearGradient>
</defs>
</svg>
