<svg width="62" height="63" viewBox="0 0 62 63" fill="none" xmlns="http://www.w3.org/2000/svg">
<circle cx="31" cy="30" r="29.5" stroke="#92F7FF"/>
<g filter="url(#filter0_d_1_1587)">
<circle cx="31" cy="30" r="21" fill="#39B6C0"/>
</g>
<path d="M31.5843 22.7407L34.5108 25.6822C34.7967 25.9697 34.8392 26.4428 34.568 26.7449C34.2797 27.0671 33.7855 27.0768 33.4841 26.7741L32.1573 25.4408C32.0075 25.2902 31.7517 25.3969 31.7517 25.6097L31.7517 30.4175C31.7517 30.8243 31.4488 31.1887 31.0447 31.2099C30.6142 31.2326 30.2573 30.8883 30.2573 30.46L30.2573 25.6097C30.2573 25.3969 30.0012 25.2902 29.8517 25.4408L28.5549 26.744C28.2689 27.0314 27.7982 27.0739 27.4979 26.8018C27.1774 26.5117 27.1677 26.0148 27.4686 25.712L30.425 22.7407C30.745 22.4188 31.2643 22.4188 31.5843 22.7407Z" fill="white"/>
<path d="M31.7517 33.2428L31.7517 34.1083C31.7517 34.523 31.4171 34.8594 31.0045 34.8594C30.5918 34.8594 30.2572 34.523 30.2572 34.1083L30.2572 33.2428C30.2572 32.8281 30.5918 32.492 31.0045 32.492C31.4171 32.492 31.7517 32.8281 31.7517 33.2428Z" fill="white"/>
<path d="M31.7517 36.6681L31.7517 36.7492C31.7517 37.1637 31.4168 37.5 31.0042 37.5C30.5916 37.5 30.2569 37.1637 30.2569 36.7492L30.2569 36.6684C30.2569 36.2534 30.5916 35.9176 31.0042 35.9176C31.4168 35.9176 31.7517 36.2534 31.7517 36.6681Z" fill="white"/>
<defs>
<filter id="filter0_d_1_1587" x="0" y="1" width="62" height="62" filterUnits="userSpaceOnUse" color-interpolation-filters="sRGB">
<feFlood flood-opacity="0" result="BackgroundImageFix"/>
<feColorMatrix in="SourceAlpha" type="matrix" values="0 0 0 0 0 0 0 0 0 0 0 0 0 0 0 0 0 0 127 0" result="hardAlpha"/>
<feOffset dy="2"/>
<feGaussianBlur stdDeviation="5"/>
<feColorMatrix type="matrix" values="0 0 0 0 0.2 0 0 0 0 0.755556 0 0 0 0 0.8 0 0 0 1 0"/>
<feBlend mode="normal" in2="BackgroundImageFix" result="effect1_dropShadow_1_1587"/>
<feBlend mode="normal" in="SourceGraphic" in2="effect1_dropShadow_1_1587" result="shape"/>
</filter>
</defs>
</svg>
