<svg width="22" height="22" viewBox="0 0 22 22" fill="none" xmlns="http://www.w3.org/2000/svg">
<path fill-rule="evenodd" clip-rule="evenodd" d="M4.55943 0.0713205C4.34624 0.171095 4.17044 0.372924 4.11132 0.585767C4.08689 0.673753 4.06679 0.942227 4.06666 1.18231L4.06641 1.61879L3.21667 1.63798C2.26556 1.65941 2.01761 1.71181 1.48492 2.00382C1.05588 2.23904 0.55008 2.7725 0.329492 3.2225C-0.0285165 3.95284 0.000568192 3.19208 0.000568192 11.8246C0.000568192 20.4415 -0.0271828 19.699 0.321318 20.4102C0.641766 21.0643 1.26304 21.6048 1.99614 21.8673L2.36693 22H10.6062H18.8454L19.1896 21.8788C20.1563 21.5386 20.8699 20.7707 21.1363 19.7842C21.2069 19.5225 21.2118 19.0124 21.2118 11.8246C21.2118 3.18962 21.2411 3.95336 20.8815 3.2197C20.6287 2.70396 20.1164 2.19313 19.5983 1.94036C19.0938 1.69417 18.7241 1.62778 17.8576 1.62778H17.1459L17.1457 1.18678C17.1454 0.662954 17.0993 0.470977 16.9265 0.274139C16.5534 -0.15073 15.8418 -0.0610667 15.5985 0.441462C15.5258 0.591748 15.511 0.707398 15.511 1.12508V1.62778H10.6062H5.70135V1.12508C5.70135 0.707398 5.68655 0.591748 5.61379 0.441462C5.43085 0.063576 4.94235 -0.107921 4.55943 0.0713205ZM4.07407 3.76826C4.09351 4.3565 4.15908 4.53841 4.41951 4.72707C4.73273 4.95398 5.13136 4.9317 5.42866 4.67067C5.6594 4.46806 5.70135 4.32776 5.70135 3.75889V3.26272H10.6062H15.511V3.75889C15.511 4.32776 15.5529 4.46806 15.7837 4.67067C16.081 4.9317 16.4796 4.95398 16.7928 4.72707C17.057 4.5357 17.1219 4.35577 17.1387 3.76826L17.1531 3.26272H17.8363C18.419 3.26272 18.554 3.27567 18.7545 3.35067C19.0505 3.46141 19.3149 3.71522 19.4628 4.0305L19.5768 4.27381V11.8246V19.3755L19.4644 19.6121C19.3297 19.8957 19.0976 20.1348 18.8282 20.2675L18.6303 20.3651H10.6062H2.58205L2.38414 20.2675C2.11472 20.1348 1.88264 19.8957 1.74793 19.6121L1.63551 19.3755V11.8246C1.63551 4.65182 1.63938 4.2652 1.71278 4.10171C1.83643 3.82639 1.99524 3.62232 2.18201 3.49871C2.49024 3.29473 2.62073 3.26901 3.36274 3.26574L4.05733 3.26272L4.07407 3.76826ZM5.45537 7.45789C4.8011 7.78893 4.70588 8.64181 5.26929 9.12407C6.11985 9.85209 7.34098 8.83994 6.79121 7.86254C6.60848 7.53771 6.34771 7.37886 5.96462 7.35907C5.72424 7.34663 5.64481 7.36204 5.45537 7.45789ZM9.98231 7.43182C9.61927 7.60026 9.40147 7.94872 9.40147 8.36116C9.40147 8.78568 9.62064 9.11723 10.0127 9.28589C10.4074 9.45571 10.8282 9.366 11.1392 9.04572C11.7518 8.41494 11.2883 7.34767 10.4032 7.35102C10.2532 7.35158 10.0861 7.38368 9.98231 7.43182ZM14.4453 7.43879C13.5368 7.89984 13.7941 9.27978 14.8041 9.3635C15.4451 9.41668 15.9388 8.91364 15.8864 8.26078C15.8604 7.9362 15.7231 7.70731 15.4318 7.50255C15.2757 7.39284 15.2 7.3709 14.9382 7.35924C14.6878 7.34814 14.594 7.36328 14.4453 7.43879ZM10.2189 11.437C9.90456 11.4956 9.63957 11.6988 9.48679 11.9981C9.3492 12.2679 9.37592 12.7279 9.54393 12.9818C9.78603 13.3476 10.2225 13.5176 10.6584 13.4158C10.9578 13.346 11.2929 13.0198 11.3782 12.7154C11.5797 11.9955 10.9497 11.3006 10.2189 11.437ZM14.7075 11.4432C14.4552 11.4877 14.2952 11.5801 14.1239 11.7802C13.6539 12.3293 13.881 13.1539 14.5692 13.3967C15.2121 13.6236 15.8982 13.1289 15.8982 12.4387C15.8982 12.1605 15.8109 11.9373 15.6271 11.7457C15.3831 11.4912 15.0523 11.3824 14.7075 11.4432ZM5.45297 11.5285C4.97479 11.7652 4.75958 12.4004 4.99759 12.8725C5.18161 13.2376 5.50403 13.4349 5.91647 13.4349C6.39762 13.4349 6.75283 13.166 6.88857 12.6991C6.94833 12.4935 6.95139 12.4192 6.90793 12.225C6.84361 11.9376 6.6426 11.6689 6.39374 11.5375C6.13839 11.4027 5.71524 11.3987 5.45297 11.5285ZM5.6153 15.5456C5.36554 15.6261 5.12081 15.8304 5.00396 16.056C4.8689 16.3167 4.87377 16.7311 5.01484 16.9862C5.15433 17.2383 5.42814 17.4417 5.71451 17.5058C6.40897 17.6612 7.06334 17.0068 6.90793 16.3124C6.77757 15.7298 6.16735 15.3679 5.6153 15.5456ZM10.0994 15.5429C9.48103 15.743 9.20761 16.4545 9.5318 17.0198C9.95245 17.7533 10.9791 17.686 11.3341 16.9016C11.6788 16.14 10.9005 15.2836 10.0994 15.5429ZM14.672 15.5198C13.9189 15.7158 13.621 16.6098 14.1234 17.1659C14.3468 17.4132 14.575 17.5185 14.8871 17.5185C15.9511 17.5185 16.2924 16.0973 15.3444 15.6137C15.1415 15.5101 14.8602 15.4709 14.672 15.5198Z" fill="#39B6C0"/>
</svg>
