<svg width="60" height="60" viewBox="0 0 60 60" fill="none" xmlns="http://www.w3.org/2000/svg">
<g clip-path="url(#clip0_1_1414)">
<path d="M57.0813 50.7129C52.9395 44.7545 45.9167 37.3845 40.2675 32.4953C39.9006 32.1777 39.3453 32.2176 39.0275 32.5847C38.7097 32.9519 38.7497 33.507 39.1169 33.8248C48.7477 42.1606 58.055 53.697 58.2522 56.7252C57.955 56.6968 57.1486 56.5007 55.4113 55.4033C45.9899 49.3967 30.5149 31.9212 30.304 27.9152C30.8963 27.9632 32.8253 28.7164 36.847 31.9322C37.2263 32.2356 37.7794 32.174 38.0826 31.7948C38.3859 31.4156 38.3243 30.8622 37.945 30.559C35.8793 28.9072 34.1219 27.6983 32.721 26.9658C31.5683 26.363 29.9279 25.6728 28.9942 26.6336C28.7051 26.9311 28.5812 27.3025 28.5528 27.6876C27.003 32.0035 26.8387 36.6699 27.9269 41.0972C25.8885 40.9865 23.7677 40.9296 21.6017 40.9296C17.5288 40.9298 0 41.2644 0 45.3485C0 45.7694 0.16875 46.1229 0.415312 46.4169C4.06839 54.5716 12.3675 59.8331 21.602 59.8331C24.6276 59.8331 27.5694 59.2775 30.3456 58.1818C30.7974 58.0036 31.019 57.4929 30.8408 57.0412C30.6625 56.5896 30.1517 56.368 29.7003 56.5462C19.9245 60.4045 8.53991 56.7904 3.16769 47.8924C10.0542 50.0649 24.3951 50.0051 31.6424 49.3287C32.6548 50.7914 33.8419 52.1695 35.1593 53.402C34.2625 54.1126 33.3052 54.7533 32.3029 55.313C31.879 55.5498 31.7273 56.0852 31.964 56.5092C32.2008 56.9331 32.7365 57.0851 33.1602 56.8481C34.3404 56.1889 35.4625 55.4248 36.5065 54.5732C42.8037 59.6669 51.1349 61.2776 58.5115 58.4796C59.0394 58.4361 59.3721 58.2088 59.5618 58.0137C61.0474 56.4848 58.3849 52.5881 57.0813 50.7129ZM1.82144 45.3478C3.6887 43.6197 15.8184 42.1259 28.4404 42.8871C28.9931 44.5733 29.7243 46.1841 30.5801 47.6568C18.0511 48.7007 3.85945 47.2744 1.82144 45.3478ZM29.4937 30.7404C31.8804 35.3035 37.5912 41.7108 41.215 45.4391C41.2151 45.4391 41.2151 45.4391 41.2151 45.4391C44.7912 49.1186 51.1501 55.1455 55.5849 57.5473C40.292 61.2276 26.065 46.052 29.4937 30.7404Z" fill="#33C1CC"/>
<path d="M13.3008 31.6471C13.3826 27.4423 15.6165 25.2027 16.941 24.2417C17.351 23.9442 17.5067 23.426 17.3287 22.9522C17.3287 22.9521 17.3287 22.9521 17.3287 22.952C17.1506 22.4781 16.692 22.1907 16.1879 22.2366C14.5584 22.3848 11.4025 22.1688 8.57343 19.0573C8.26454 18.7178 7.78792 18.6023 7.35916 18.7633C6.93028 18.9243 6.64746 19.325 6.63844 19.784C6.55666 23.9886 4.32263 26.2283 2.99857 27.1891C2.58845 27.4864 2.43249 28.0046 2.61035 28.4786L2.61043 28.4788C2.78836 28.9526 3.24669 29.2401 3.75131 29.1944C4.31832 29.1429 5.21082 29.1257 6.24342 29.337C6.71925 29.4344 7.18397 29.1274 7.28133 28.6516C7.37869 28.1758 7.07186 27.711 6.59592 27.6137C6.19297 27.5314 5.78791 27.4728 5.38249 27.4383C6.61565 26.1637 7.9176 24.1705 8.29298 21.2506C10.497 23.2017 12.7889 23.8453 14.5562 23.9934C13.3229 25.268 12.021 27.2612 11.646 30.1819C11.3206 29.8943 10.9852 29.6279 10.642 29.3846C10.2457 29.1037 9.69679 29.1971 9.41588 29.5935C9.13493 29.9898 9.22841 30.5388 9.62477 30.8196C10.2367 31.2536 10.8225 31.7764 11.3656 32.3739C11.6745 32.7135 12.1512 32.8289 12.58 32.6679C13.0089 32.5067 13.2918 32.1061 13.3008 31.6471Z" fill="#33C1CC"/>
<path d="M28.5943 13.4631C28.6595 10.114 30.4389 8.33008 31.4939 7.56462C31.8204 7.32765 31.9444 6.91494 31.8027 6.53751C31.8026 6.53742 31.8026 6.53742 31.8026 6.53733C31.6608 6.15993 31.2955 5.93095 30.894 5.96756C29.5961 6.08558 27.0823 5.91352 24.8289 3.43519C24.5829 3.16473 24.2033 3.07276 23.8618 3.20099C23.5202 3.32926 23.2949 3.64837 23.2877 4.01402C23.2226 7.36303 21.4431 9.14695 20.3885 9.91228C20.0618 10.1491 19.9376 10.5618 20.0793 10.9394L20.0793 10.9395C20.2211 11.317 20.5861 11.5459 20.9881 11.5096C21.4397 11.4685 22.1506 11.4548 22.9731 11.6231C23.3521 11.7007 23.7222 11.4562 23.7998 11.0772C23.8773 10.6982 23.6329 10.328 23.2538 10.2505C22.9329 10.1849 22.6102 10.1383 22.2873 10.1107C23.2695 9.0955 24.3066 7.50789 24.6056 5.18214C26.3611 6.73622 28.1867 7.24887 29.5943 7.36683C28.612 8.38211 27.575 9.96972 27.2763 12.296C27.0171 12.067 26.75 11.8548 26.4766 11.661C26.1609 11.4373 25.7237 11.5117 25.5 11.8274C25.2762 12.1431 25.3506 12.5804 25.6664 12.804C26.1538 13.1497 26.6204 13.5662 27.053 14.0421C27.299 14.3125 27.6787 14.4045 28.0202 14.2762C28.3619 14.1479 28.5872 13.8287 28.5943 13.4631Z" fill="#33C1CC"/>
</g>
<defs>
<clipPath id="clip0_1_1414">
<rect width="60" height="60" fill="white"/>
</clipPath>
</defs>
</svg>
