<svg width="80" height="24" viewBox="0 0 80 24" fill="none" xmlns="http://www.w3.org/2000/svg">
<path fill-rule="evenodd" clip-rule="evenodd" d="M70.3729 7.22506C71.2424 5.57634 72.9014 5.06232 74.5104 5.06232C77.9329 5.06232 80 7.96261 80 11.9853C80 16.0872 77.8872 18.9342 74.5173 18.9342C72.939 18.9342 71.3873 18.4817 70.5178 17.1645V23.2993H66.0228V5.52713H70.3729V7.22506ZM72.9 15.3558C74.8331 15.3558 75.5392 13.7878 75.5392 11.9853C75.5392 10.2087 74.8331 8.694 72.9 8.694C71.0448 8.694 70.2615 10.2087 70.2615 11.9853C70.2615 13.7878 71.0448 15.3558 72.9 15.3558Z" fill="#2E6BE5"/>
<path fill-rule="evenodd" clip-rule="evenodd" d="M55.6072 7.36421C54.8703 5.73737 53.6475 5.06271 51.9851 5.06271C50.525 5.06271 48.9132 5.53025 48.0438 7.40112V5.52683H43.693V18.5142H48.188V11.6719C48.188 10.2091 48.6952 8.95482 50.1313 8.95482C51.4376 8.95482 51.8128 9.86941 51.8128 11.3841V18.5142H56.3078V11.4634C56.3078 10.0526 56.7815 8.95482 58.1917 8.95482C59.498 8.95482 59.7878 9.86941 59.7878 11.3841V18.5142H64.2828V10.4702C64.2828 7.17897 62.779 5.08868 59.5137 5.08868C57.8239 5.08868 56.517 5.7442 55.6072 7.36421Z" fill="#2E6BE5"/>
<path fill-rule="evenodd" clip-rule="evenodd" d="M29.7426 9.37916H33.8438C33.9225 8.36409 34.606 7.83229 35.6778 7.83229C36.8788 7.83229 37.4591 8.40101 37.4591 9.91575V10.1044H34.6272C30.7091 10.1044 29.1677 12.505 29.1677 14.5167C29.1677 16.8414 30.8068 18.9174 33.6545 18.9174C35.3142 18.9174 37.0237 18.4662 37.7489 17.1292V18.5141H41.8085V10.3341C41.8085 6.75502 39.25 5.03659 35.7236 5.06325C31.9354 5.08922 29.8991 6.91429 29.7426 9.37916ZM35.2854 15.6965C34.1364 15.6965 33.4412 15.2146 33.4412 14.2481C33.4412 13.3075 34.3141 12.721 35.4638 12.721H37.4591V13.4757C37.4591 14.73 36.6963 15.6965 35.2854 15.6965Z" fill="#2E6BE5"/>
<path fill-rule="evenodd" clip-rule="evenodd" d="M22.8143 18.5147H27.5992V0.742498H22.8143V18.5147Z" fill="#2E6BE5"/>
<path fill-rule="evenodd" clip-rule="evenodd" d="M21.1455 5.07724V0.742188H6.11775C2.91601 0.742188 0 2.74703 0 6.33975C0 9.25508 1.87429 11.2339 4.34736 11.9107L5.51896 7.88799C4.92017 7.62824 4.42597 7.11353 4.42597 6.38487C4.42597 5.39509 5.25852 4.93301 6.03982 4.93301H7.70767V18.5144H12.3312V12.5908H19.1229V8.40065H12.3312V5.07724H21.1455Z" fill="#2E6BE5"/>
</svg>
