<svg width="44" height="60" viewBox="0 0 44 60" fill="none" xmlns="http://www.w3.org/2000/svg">
<g clip-path="url(#clip0_1_1433)">
<path d="M37.5309 6.53086V4.33333V3.95062C37.5309 1.77778 35.7531 0 33.5802 0H9.87654C7.7037 0 5.92593 1.77778 5.92593 3.95062V4.33333V6.54321V11.2469L1.97531 13.2222V26.0988L9.46914 33.5802H11.7037C12.284 36.8765 12.7531 39.679 12.8148 44.1975H4.93827C2.20988 44.1975 0 46.4074 0 49.1358V56.0494H4.17284L5.16049 60H14.6049L15.5926 56.0494H27.8765L28.8642 60H38.3086L39.2963 56.0494H43.4568V49.1358C43.4568 46.4074 41.2469 44.1975 38.5185 44.1975H30.642C30.7037 39.679 31.1728 36.8765 31.7531 33.5802H33.9877L41.4815 26.0864V13.2222L37.5309 11.2469V6.53086ZM7.90123 3.95062C7.90123 2.8642 8.79012 1.97531 9.87654 1.97531H33.5802C34.6667 1.97531 35.5556 2.8642 35.5556 3.95062V22.716C35.5556 23.8025 34.6667 24.6914 33.5802 24.6914H9.87654C8.79012 24.6914 7.90123 23.8025 7.90123 22.716V3.95062ZM13.0617 58.0247H6.69136L6.19753 56.0494H13.5432L13.0617 58.0247ZM36.7654 58.0247H30.4074L29.9136 56.0494H37.2593L36.7654 58.0247ZM38.5185 46.1728C40.1481 46.1728 41.4815 47.5062 41.4815 49.1358V54.0741H1.97531V52.0988H35.5556V50.1235H1.97531V49.1358C1.97531 47.5062 3.30864 46.1728 4.93827 46.1728H38.5185ZM18.6543 33.5802H24.8025C24.2346 36.9136 23.7778 39.716 23.7161 44.1975H19.7284C19.679 39.716 19.2222 36.9136 18.6543 33.5802ZM39.5062 14.4321V25.2593L33.1728 31.6049H32.1235C32.321 30.6173 32.5309 29.679 32.7284 28.8765L30.8148 28.4074C29.8642 32.2469 28.7531 37.037 28.6667 44.1975H25.7037C25.8025 37.2346 26.8765 32.6173 27.8025 28.8765L25.8889 28.4074C25.6543 29.3457 25.4198 30.4198 25.1852 31.6049H18.3086C18.0741 30.4198 17.8272 29.3457 17.6049 28.4074L15.6914 28.8765C16.6049 32.6173 17.6914 37.2222 17.7901 44.1975H14.8272C14.7284 37.037 13.6173 32.2469 12.679 28.4074L10.7654 28.8765C10.963 29.679 11.1728 30.6049 11.3704 31.6049H10.321L3.95062 25.2716V14.4444L5.92593 13.4568V22.716C5.92593 24.8889 7.7037 26.6667 9.87654 26.6667H33.5802C35.7531 26.6667 37.5309 24.8889 37.5309 22.716V13.4444L39.5062 14.4321Z" fill="#33C1CC"/>
<path d="M39.5062 51.358H37.5309V53.3333H39.5062V51.358Z" fill="#33C1CC"/>
<path d="M23.4445 12.284C23.4445 11.3704 22.7037 10.6173 21.7778 10.6173C20.8642 10.6173 20.1235 11.3581 20.1235 12.284C20.1235 13.1976 20.8642 13.9506 21.7901 13.9506C22.7037 13.9383 23.4445 13.1976 23.4445 12.284Z" fill="#33C1CC"/>
<path d="M32.0124 12.605C32.2099 12.3828 32.2099 12.0495 32.0124 11.8273C31.963 11.7655 30.8889 10.5557 29.0988 9.33343C26.9507 7.86429 24.4075 6.8396 21.7902 6.8396C19.1729 6.8396 16.6297 7.86429 14.4815 9.33343C12.6914 10.5557 11.6173 11.7655 11.5679 11.8273L11.7038 11.9507L11.5679 11.8273C11.3704 12.0495 11.3704 12.3828 11.5679 12.605C11.6173 12.6668 12.6914 13.8766 14.4815 15.0989C16.6297 16.568 19.1729 17.5927 21.7902 17.5927C24.4075 17.5927 26.9507 16.568 29.0988 15.0989C30.8889 13.8766 31.963 12.6668 32.0124 12.605ZM17.5186 8.9754C16.8396 9.87664 16.4321 11.0001 16.4321 12.2223C16.4321 13.4445 16.8396 14.568 17.5186 15.4692C16.605 15.0618 15.8025 14.5927 15.1482 14.1482L15.0494 14.2964L15.1482 14.1482C14.0618 13.4075 13.247 12.6668 12.8025 12.2223C13.247 11.7902 14.0494 11.0495 15.1235 10.3087C15.7902 9.86429 16.605 9.38281 17.5186 8.9754ZM17.605 12.2223C17.605 9.88898 19.4939 8.02479 21.7902 8.02479C24.0988 8.02479 25.9754 9.90133 25.9754 12.2223C25.9754 14.5557 24.0865 16.4199 21.7902 16.4199C19.4815 16.4199 17.605 14.5433 17.605 12.2223ZM28.4322 10.2964C29.5186 11.0371 30.3334 11.7779 30.7778 12.2223C30.3334 12.6544 29.5309 13.3952 28.4568 14.1359C27.8025 14.5803 26.9877 15.0618 26.0741 15.4692C26.7531 14.568 27.1606 13.4445 27.1606 12.2223C27.1606 11.0001 26.7531 9.87664 26.0741 8.9754C26.9754 9.38281 27.7778 9.85195 28.4322 10.2964Z" fill="#33C1CC"/>
<path d="M21.7902 17.7778C18.7161 17.7778 16.0618 16.4074 14.3704 15.2469C12.5556 14.0124 11.4692 12.7778 11.4198 12.7284C11.2099 12.4815 11.1729 12.1358 11.3087 11.8642V11.8519L11.4321 11.7161C11.4321 11.7161 11.4321 11.7161 11.4445 11.7037L11.5556 11.5803C11.8889 11.2222 12.8889 10.2099 14.3827 9.19755C16.0741 8.0494 18.7284 6.66669 21.8025 6.66669C24.8766 6.66669 27.5309 8.03706 29.2223 9.19755C31.0247 10.4321 32.1235 11.6667 32.1729 11.7161C32.4321 12.0124 32.4321 12.4445 32.1729 12.7284C32.1235 12.7778 31.0371 14.0124 29.2223 15.2469C27.5186 16.4074 24.8642 17.7778 21.7902 17.7778ZM11.7037 11.963C11.5679 12.1111 11.5679 12.3457 11.7037 12.4938C11.7531 12.5432 12.8025 13.7408 14.5803 14.9506C16.2222 16.0741 18.8025 17.4074 21.7902 17.4074C24.7655 17.4074 27.3581 16.0741 29 14.9506C30.7778 13.7408 31.8395 12.5432 31.8766 12.4938C32.0124 12.3457 32.0124 12.1111 31.8766 11.963C31.8272 11.9136 30.7655 10.7161 29 9.50619C27.3581 8.37039 24.7655 7.03706 21.7902 7.03706C18.8148 7.03706 16.2222 8.37039 14.5803 9.49385C12.8148 10.7161 11.7531 11.9136 11.7037 11.963ZM21.7902 16.605C19.3827 16.605 17.4198 14.642 17.4198 12.2222C17.4198 9.80249 19.3827 7.83953 21.7902 7.83953C24.1976 7.83953 26.1605 9.80249 26.1605 12.2222C26.1605 14.642 24.1976 16.605 21.7902 16.605ZM21.7902 8.2099C19.5803 8.2099 17.7902 10.0124 17.7902 12.2222C17.7902 14.4321 19.5926 16.2346 21.7902 16.2346C23.9877 16.2346 25.7902 14.4321 25.7902 12.2222C25.7902 10.0124 24 8.2099 21.7902 8.2099ZM18.0988 15.9259L17.4445 15.642C16.6914 15.3087 15.926 14.8889 15.1976 14.4074L15.0741 14.321C15.0618 14.321 15.0618 14.3087 15.0494 14.3087C15.0371 14.2963 15.0247 14.2963 15.0124 14.284L14.9013 14.2099C13.9136 13.5185 13.1482 12.8272 12.6914 12.3704L12.5556 12.2346L12.6914 12.0988C13.1729 11.6173 13.9753 10.8889 15.0371 10.1729C15.8272 9.62965 16.642 9.18521 17.4568 8.82718L18.1111 8.54323L17.679 9.11113C16.9877 10.0247 16.6297 11.0988 16.6297 12.2469C16.6297 13.3827 17 14.4692 17.679 15.3827L18.0988 15.9259ZM15.2593 13.9877C15.8272 14.3704 16.4198 14.7161 17 15.0124C16.5062 14.1729 16.2469 13.2099 16.2469 12.2222C16.2469 11.2346 16.5062 10.2716 17 9.43212C16.4074 9.72842 15.8148 10.0741 15.2346 10.4692C14.284 11.1111 13.5556 11.7655 13.0741 12.2222C13.5679 12.6914 14.3087 13.3457 15.2593 13.9877ZM25.4815 15.9259L25.9136 15.358C26.605 14.4445 26.963 13.3704 26.963 12.2222C26.963 11.0864 26.5926 10 25.9136 9.08644L25.4815 8.51854L26.1358 8.80249C26.9507 9.16051 27.7531 9.60496 28.5309 10.1358C29.5926 10.8642 30.4074 11.5926 30.9013 12.0741L31.0371 12.2099L30.9013 12.3457C30.4198 12.8272 29.6173 13.5556 28.5556 14.2716C27.7655 14.8148 26.9507 15.2593 26.1358 15.6173L25.4815 15.9259ZM26.5803 9.43212C27.0741 10.284 27.3334 11.2346 27.3334 12.2222C27.3334 13.2222 27.0741 14.1729 26.5803 15.0124C27.1729 14.7161 27.7655 14.3704 28.3457 13.9753C29.2963 13.3334 30.0247 12.679 30.5062 12.2222C30.0247 11.7531 29.2716 11.0988 28.321 10.4568C27.7531 10.0617 27.1729 9.71607 26.5803 9.43212Z" fill="#33C1CC"/>
</g>
<defs>
<clipPath id="clip0_1_1433">
<rect width="43.4568" height="60" fill="white"/>
</clipPath>
</defs>
</svg>
