<svg width="28" height="14" viewBox="0 0 28 14" fill="none" xmlns="http://www.w3.org/2000/svg">
<g clip-path="url(#clip0_1_2225)">
<path d="M27.5494 5.90862L22.0586 0.446024C21.5222 -0.0877001 20.639 -0.167075 20.0751 0.339279C19.4737 0.877383 19.4555 1.79977 20.0206 2.36251L22.5093 4.83899C22.7904 5.11871 22.5913 5.59605 22.194 5.59605H13.2198C12.4605 5.59605 11.7804 6.16153 11.7408 6.91586C11.6984 7.71946 12.3411 8.38565 13.1405 8.38565H22.194C22.5913 8.38565 22.7904 8.86354 22.5093 9.14272L20.0767 11.5634C19.5402 12.0971 19.461 12.9757 19.9689 13.5362C20.5103 14.1345 21.438 14.1526 22.0031 13.591L27.5494 8.07253C28.1502 7.47531 28.1502 6.50585 27.5494 5.90862Z" fill="white"/>
<path d="M7.94639 5.59619H6.33092C5.55675 5.59619 4.92894 6.22079 4.92894 6.99099C4.92894 7.7612 5.55675 8.38579 6.33092 8.38579H7.94639C8.72056 8.38579 9.34782 7.7612 9.34782 6.99099C9.34782 6.22079 8.72056 5.59619 7.94639 5.59619Z" fill="white"/>
<path d="M1.55274 5.59619H1.40143C0.62781 5.59619 0 6.22133 0 6.99154C0 7.76174 0.62781 8.38634 1.40143 8.38634H1.55219C2.32691 8.38634 2.95362 7.76174 2.95362 6.99154C2.95362 6.22133 2.32691 5.59619 1.55274 5.59619Z" fill="white"/>
</g>
<defs>
<clipPath id="clip0_1_2225">
<rect width="28" height="14" fill="white"/>
</clipPath>
</defs>
</svg>
