<svg width="81" height="28" viewBox="0 0 81 28" fill="none" xmlns="http://www.w3.org/2000/svg">
<g clip-path="url(#clip0_1_1314)">
<path d="M34.7865 14.6187C34.7865 18.3746 31.8483 21.1422 28.2424 21.1422C24.6365 21.1422 21.6983 18.3746 21.6983 14.6187C21.6983 10.8363 24.6365 8.09514 28.2424 8.09514C31.8483 8.09514 34.7865 10.8363 34.7865 14.6187ZM31.9218 14.6187C31.9218 12.2716 30.2189 10.6657 28.2424 10.6657C26.266 10.6657 24.563 12.2716 24.563 14.6187C24.563 16.9422 26.266 18.5716 28.2424 18.5716C30.2189 18.5716 31.9218 16.9393 31.9218 14.6187Z" fill="#EA4335"/>
<path d="M48.9042 14.6187C48.9042 18.3746 45.966 21.1422 42.3601 21.1422C38.7542 21.1422 35.816 18.3746 35.816 14.6187C35.816 10.8393 38.7542 8.09514 42.3601 8.09514C45.966 8.09514 48.9042 10.8363 48.9042 14.6187ZM46.0395 14.6187C46.0395 12.2716 44.3366 10.6657 42.3601 10.6657C40.3836 10.6657 38.6807 12.2716 38.6807 14.6187C38.6807 16.9422 40.3836 18.5716 42.3601 18.5716C44.3366 18.5716 46.0395 16.9393 46.0395 14.6187Z" fill="#FBBC05"/>
<path d="M62.4336 8.48926V20.201C62.4336 25.0187 59.5924 26.9863 56.2336 26.9863C53.0718 26.9863 51.1689 24.8716 50.4512 23.1422L52.9454 22.104C53.3895 23.1657 54.4777 24.4187 56.2307 24.4187C58.3807 24.4187 59.713 23.0922 59.713 20.5951V19.6569H59.613C58.9718 20.4481 57.7365 21.1393 56.1777 21.1393C52.916 21.1393 49.9277 18.2981 49.9277 14.6422C49.9277 10.9598 52.916 8.09514 56.1777 8.09514C57.7336 8.09514 58.9689 8.78631 59.613 9.55396H59.713V8.4922H62.4336V8.48926ZM59.916 14.6422C59.916 12.3451 58.3836 10.6657 56.4336 10.6657C54.4571 10.6657 52.8013 12.3451 52.8013 14.6422C52.8013 16.9157 54.4571 18.5716 56.4336 18.5716C58.3836 18.5716 59.916 16.9157 59.916 14.6422Z" fill="#4285F4"/>
<path d="M66.9189 1.62454V20.7422H64.1248V1.62454H66.9189Z" fill="#34A853"/>
<path d="M77.8071 16.7656L80.0307 18.2479C79.313 19.3097 77.5836 21.1391 74.5954 21.1391C70.8895 21.1391 68.1219 18.2744 68.1219 14.6156C68.1219 10.7362 70.913 8.09205 74.2748 8.09205C77.6601 8.09205 79.316 10.7862 79.8571 12.2421L80.1542 12.9832L71.4336 16.595C72.1013 17.9038 73.1395 18.5715 74.5954 18.5715C76.0542 18.5715 77.066 17.8538 77.8071 16.7656ZM70.963 14.4185L76.7924 11.9979C76.4719 11.1832 75.5071 10.6156 74.3719 10.6156C72.916 10.6156 70.8895 11.9009 70.963 14.4185Z" fill="#EA4335"/>
<path d="M11.1218 12.9215V10.1538H20.4483C20.5395 10.6362 20.5865 11.2068 20.5865 11.8244C20.5865 13.9009 20.0189 16.4685 18.1895 18.298C16.4101 20.1509 14.1365 21.1391 11.1248 21.1391C5.54242 21.1391 0.848297 16.5921 0.848297 11.0097C0.848297 5.42736 5.54242 0.880306 11.1248 0.880306C14.213 0.880306 16.413 2.09207 18.0659 3.67148L16.113 5.62442C14.9277 4.51266 13.3218 3.64795 11.1218 3.64795C7.04536 3.64795 3.85712 6.93325 3.85712 11.0097C3.85712 15.0862 7.04536 18.3715 11.1218 18.3715C13.7659 18.3715 15.2718 17.3097 16.2365 16.345C17.0189 15.5627 17.5336 14.445 17.7365 12.9185L11.1218 12.9215Z" fill="#4285F4"/>
</g>
<defs>
<clipPath id="clip0_1_1314">
<rect width="80" height="27.0588" fill="white" transform="translate(0.742432 0.742188)"/>
</clipPath>
</defs>
</svg>
