<svg width="10" height="6" viewBox="0 0 10 6" fill="none" xmlns="http://www.w3.org/2000/svg">
<path d="M0.160006 0.588239L0.488006 0.258239C0.591005 0.155239 0.728005 0.0982391 0.875006 0.0982391C1.02201 0.0982391 1.15901 0.155239 1.26201 0.258239L4.99801 3.99524L8.73901 0.254238C8.84201 0.151238 8.97901 0.0942384 9.12501 0.0942384C9.27101 0.0942383 9.40901 0.151238 9.51201 0.254238L9.84001 0.581238C10.053 0.794238 10.053 1.14124 9.84001 1.35524L5.38601 5.82524C5.28301 5.92824 5.14601 6.00024 4.99801 6.00024L4.99601 6.00024C4.84901 6.00024 4.71201 5.92724 4.60901 5.82524L0.159006 1.36724C0.057006 1.26424 5.812e-06 1.12324 5.79915e-06 0.976239C5.78639e-06 0.830239 0.0570059 0.691239 0.160006 0.588239Z" fill="#028ECE"/>
</svg>
