<svg width="28" height="14" viewBox="0 0 28 14" fill="none" xmlns="http://www.w3.org/2000/svg">
<path d="M0.450648 5.90862L5.94137 0.446024C6.47785 -0.0877001 7.36096 -0.167075 7.92495 0.339279C8.52634 0.877383 8.5445 1.79977 7.97942 2.36251L5.49074 4.83899C5.20957 5.11871 5.40875 5.59605 5.80602 5.59605H14.7802C15.5396 5.59605 16.2196 6.16153 16.2592 6.91586C16.3016 7.71946 15.659 8.38565 14.8595 8.38565H5.80602C5.40875 8.38565 5.20957 8.86354 5.49074 9.14272L7.9233 11.5634C8.45977 12.0971 8.539 12.9757 8.03114 13.5362C7.48972 14.1345 6.56203 14.1526 5.99695 13.591L0.450648 8.07253C-0.150202 7.47531 -0.150202 6.50585 0.450648 5.90862Z" fill="white"/>
<path d="M20.0536 5.59619H21.6691C22.4432 5.59619 23.071 6.22079 23.071 6.99099C23.071 7.7612 22.4432 8.38579 21.6691 8.38579H20.0536C19.2794 8.38579 18.6522 7.7612 18.6522 6.99099C18.6522 6.22079 19.2794 5.59619 20.0536 5.59619Z" fill="white"/>
<path d="M26.4473 5.59619H26.5986C27.3722 5.59619 28 6.22133 28 6.99154C28 7.76174 27.3722 8.38634 26.5986 8.38634H26.4478C25.6731 8.38634 25.0464 7.76174 25.0464 6.99154C25.0464 6.22133 25.6731 5.59619 26.4473 5.59619Z" fill="white"/>
</svg>
