<svg width="12" height="10" viewBox="0 0 12 10" fill="none" xmlns="http://www.w3.org/2000/svg">
<path d="M11.6788 4.22094L7.75672 0.318949C7.37351 -0.0622964 6.74269 -0.118994 6.33983 0.2427C5.91025 0.627073 5.89728 1.28594 6.30092 1.68791L8.07862 3.45689C8.27946 3.6567 8.13718 3.99767 7.85341 3.99767H1.44302C0.900635 3.99767 0.414845 4.4016 0.386547 4.94042C0.356283 5.51444 0.815347 5.99031 1.38643 5.99031H7.85341C8.13718 5.99031 8.27946 6.33167 8.07862 6.5311L6.34101 8.26019C5.9578 8.64143 5.90121 9.26902 6.26398 9.66943C6.65072 10.0968 7.31338 10.1097 7.71702 9.70853L11.6788 5.76665C12.108 5.34005 12.108 4.64755 11.6788 4.22094Z" fill="#33C1CC"/>
</svg>
