<svg width="30" height="30" viewBox="0 0 30 30" fill="none" xmlns="http://www.w3.org/2000/svg">
<path d="M0.15 15C0.15 6.81184 6.81184 0.15 15 0.15C23.1882 0.15 29.85 6.81184 29.85 15C29.85 23.1882 23.1882 29.85 15 29.85C6.81184 29.85 0.15 23.1882 0.15 15ZM2.57727 15C2.57727 21.85 8.14988 27.4227 15 27.4227C21.85 27.4227 27.4227 21.85 27.4227 15C27.4227 8.14998 21.8501 2.57727 15 2.57727C8.14988 2.57727 2.57727 8.14998 2.57727 15Z" fill="#33C1CC" stroke="#F2F6FF" stroke-width="0.3"/>
<path d="M12.9108 17.6227L12.8047 17.5166L9.26928 13.9811C8.7954 13.5072 8.02692 13.5071 7.55296 13.981L12.9108 17.6227ZM12.9108 17.6227L13.0169 17.5166M12.9108 17.6227L13.0169 17.5166M13.0169 17.5166L20.7309 9.8027C21.2048 9.32875 21.9732 9.32881 22.4472 9.80279C22.9212 10.2768 22.9212 11.0451 22.4472 11.5191L13.7689 20.1972C13.7689 20.1972 13.7689 20.1972 13.7689 20.1972C13.5413 20.4247 13.2326 20.5526 12.9108 20.5526H12.9108H12.9108H12.9108H12.9108H12.9108H12.9108H12.9108H12.9107H12.9107H12.9107H12.9107H12.9107C12.5889 20.5526 12.2802 20.4247 12.0526 20.1971L7.55296 15.6973L7.44689 15.8034M13.0169 17.5166L7.44689 15.8034M7.44689 15.8034L7.55296 15.6973C7.079 15.2233 7.07899 14.4549 7.55295 13.981L7.44689 15.8034Z" fill="#33C1CC" stroke="#F2F6FF" stroke-width="0.3"/>
</svg>
