<svg width="60" height="60" viewBox="0 0 60 60" fill="none" xmlns="http://www.w3.org/2000/svg">
<path d="M57.1619 22.1766C57.1698 17.3843 54.7556 12.9125 50.7446 10.2898C44.194 6.00645 35.4117 7.84319 31.1265 14.3918C31.0407 14.5093 30.9369 14.6127 30.8189 14.6983C30.1968 15.1495 29.3273 15.0123 28.8741 14.3926C26.2898 10.3559 21.8044 7.93922 17.0114 8.00171C9.18347 8.00242 2.83798 14.3485 2.83798 22.1764C2.83798 25.4989 4.27135 28.8473 6.46668 32.0306C8.6632 35.2155 11.6338 38.2517 14.7357 40.9539C20.9396 46.3585 27.6927 50.4482 29.8988 51.7414L29.9984 51.7998L30.0988 51.7427C32.3066 50.4865 39.06 46.4347 45.2641 41.0394C48.3661 38.3417 51.3369 35.3031 53.5335 32.1049C55.7289 28.9083 57.1618 25.5365 57.1619 22.1766ZM57.1619 22.1766L56.9619 22.1763M57.1619 22.1766C57.1619 22.1765 57.1619 22.1764 57.1619 22.1763L56.9619 22.1763M56.9619 22.1763C56.962 35.3916 34.405 49.0625 29.9999 51.5689L30.9364 14.8602C31.0726 14.7613 31.1924 14.6417 31.2911 14.5055C35.5149 8.04588 44.1756 6.23338 50.6352 10.4572C54.5896 13.0429 56.9697 17.4516 56.9619 22.1763ZM42.9862 5.36388H42.9873C52.2727 5.36388 59.8 12.8911 59.8 22.1764C59.8 26.2017 58.0675 30.1915 55.428 33.9318C52.7894 37.6707 49.2552 41.1447 45.6787 44.1338C38.5257 50.112 31.2288 54.1299 30.6654 54.4304L30.6566 54.435L30.6484 54.4405C30.2558 54.7028 29.744 54.7028 29.3516 54.4406L29.3434 54.435L29.3346 54.4304C28.7723 54.1304 21.4751 50.0556 14.3216 44.0486C10.745 41.0452 7.21063 37.564 4.57187 33.8355C1.93199 30.1054 0.2 26.1442 0.2 22.1764C0.2 12.8911 7.72721 5.36388 17.0126 5.36389L17.0149 5.36387C21.9668 5.30541 26.6808 7.48332 29.8461 11.2916L29.9989 11.4755L30.1529 11.2926C33.3387 7.50954 38.0404 5.33745 42.9862 5.36388Z" fill="#33C1CC" stroke="white" stroke-width="0.4"/>
</svg>
