<svg width="100" height="9" viewBox="0 0 100 9" fill="none" xmlns="http://www.w3.org/2000/svg">
<g clip-path="url(#clip0_1_1362)">
<path fill-rule="evenodd" clip-rule="evenodd" d="M19.7358 0.257814C18.4698 0.686716 18.1038 1.15713 18.0568 2.78972C18.0333 3.68212 17.9796 6.33162 18.124 7.07529C18.5571 9.19906 22.3952 9.27168 24.3226 8.68367C25.5617 8.30321 25.8035 7.7636 25.827 6.18981C25.8505 5.02764 25.8269 3.98649 25.8504 3.1114C25.8504 1.38195 25.471 0.320074 23.641 0.109082C22.4892 -0.0327331 20.7566 -0.0846165 19.7324 0.257814H19.7358ZM24.3428 6.55298V2.65137C24.373 1.5549 22.7881 1.69671 21.9923 1.69671C21.1192 1.69671 19.5947 1.60332 19.5947 2.65137V6.55298C19.5947 7.09951 20.2663 7.30358 21.0285 7.35891C21.7276 7.38399 22.4274 7.36317 23.1239 7.29665C23.8357 7.24132 24.2991 7.03726 24.3293 6.54609L24.3428 6.55298Z" fill="#EC2327"/>
<path fill-rule="evenodd" clip-rule="evenodd" d="M10.1786 0.0354218C12.0322 0.0354218 14.1163 -0.0950103 15.2616 0.144703C16.407 0.384417 17.0068 1.12471 17.0068 2.61234C17.0068 5.07999 16.2477 5.785 14.5636 5.96481C14.5151 5.96864 14.4663 5.96864 14.4178 5.96481C13.4216 6.05293 12.1068 5.96481 10.4429 5.96481V8.17509C10.4429 8.39387 10.3594 8.60369 10.2107 8.75841C10.062 8.91309 9.86029 9 9.65002 9C9.43971 9 9.23802 8.91309 9.08929 8.75841C8.9406 8.60369 8.85706 8.39387 8.85706 8.17509V6.76503C8.82656 5.72862 8.85706 4.50184 8.85706 3.47602C8.85706 2.64055 8.88756 1.74514 8.85706 0.909669C8.84314 0.813361 8.8476 0.71514 8.87021 0.620632C8.89283 0.526124 8.93318 0.437193 8.98891 0.358924C9.0446 0.280658 9.11464 0.214598 9.19491 0.164529C9.27521 0.114461 9.36425 0.081369 9.45687 0.0671486C9.69472 0.0316738 9.93537 0.0210452 10.1753 0.0354218H10.1786ZM14.4517 1.69931H10.4463V4.33616H13.9705C14.9871 4.33616 15.509 4.26565 15.553 3.06004C15.5971 1.85442 15.2548 1.72399 14.4517 1.69931Z" fill="#EC2327"/>
<path d="M7.82304 8.17102V4.7016V3.16038C7.82973 1.40354 7.43473 0.325406 5.60365 0.109778C4.4555 -0.0280817 2.7148 -0.0917096 1.68713 0.261778C0.428477 0.693031 0.0602546 1.17024 0.0133899 2.83163C0.0133899 3.47144 -0.0167374 4.99852 0.0133899 6.10846V8.16222C0.0138285 8.27084 0.034524 8.37833 0.074295 8.47851C0.114065 8.57868 0.172132 8.66962 0.24518 8.74608C0.318228 8.82258 0.404827 8.88312 0.500031 8.92424C0.595235 8.96537 0.697181 8.9863 0.800046 8.98584C1.00753 8.98587 1.20661 8.89932 1.35394 8.74506C1.50128 8.59077 1.58494 8.38131 1.5867 8.16222V4.82885V4.76523V2.69024C1.5867 1.62624 3.1165 1.72168 3.99354 1.72168C4.7735 1.72168 6.31669 1.58029 6.28654 2.69024V7.57542V8.17638C6.287 8.28501 6.30769 8.39246 6.34746 8.49263C6.38723 8.59281 6.44531 8.68375 6.51835 8.76021C6.59138 8.83671 6.678 8.89724 6.77319 8.93837C6.86838 8.97954 6.97035 9.00047 7.07323 9C7.28008 9 7.47846 8.91321 7.62473 8.75876C7.771 8.60431 7.82304 8.38949 7.82304 8.17102Z" fill="#EC2327"/>
<path fill-rule="evenodd" clip-rule="evenodd" d="M26.8709 8.17411C26.8718 7.95346 26.9557 7.74211 27.1043 7.5861C27.2529 7.43009 27.4543 7.34204 27.6645 7.3411H28.1913L31.6258 0.45038C31.7001 0.302484 31.8145 0.181072 31.9546 0.101554C32.0947 0.0220366 32.2541 -0.0120021 32.4127 0.00375811C32.5698 -0.011252 32.7276 0.0232187 32.8659 0.102769C33.0043 0.182319 33.1169 0.30334 33.1894 0.45038L36.6239 7.3411H36.9616C37.1718 7.34204 37.3732 7.43009 37.5218 7.5861C37.6705 7.74211 37.7544 7.95346 37.7553 8.17411C37.7548 8.28301 37.734 8.39078 37.6938 8.49123C37.6537 8.59171 37.5951 8.68289 37.5214 8.75958C37.4477 8.83624 37.3603 8.89697 37.2643 8.93821C37.1683 8.97946 37.0654 9.00047 36.9616 9H27.6645C27.5607 9.00047 27.4579 8.97946 27.3618 8.93821C27.2658 8.89697 27.1784 8.83624 27.1047 8.75958C27.031 8.68289 26.9724 8.59171 26.9323 8.49123C26.8922 8.39078 26.8713 8.28301 26.8709 8.17411ZM32.4127 2.46372L29.9778 7.3411H34.8375L32.4127 2.46372Z" fill="#117DC1"/>
<path fill-rule="evenodd" clip-rule="evenodd" d="M48.4946 0.0314024C48.6088 0.031864 48.7223 0.0536435 48.8277 0.0954974C48.9334 0.137351 49.0292 0.19846 49.1096 0.275334C49.1904 0.352208 49.2542 0.443344 49.2977 0.543533C49.3407 0.643723 49.363 0.751011 49.3623 0.859261V3.29L54.06 0.151178C54.2496 0.0258533 54.4834 -0.0244023 54.7119 0.0111399C54.94 0.0466822 55.1446 0.165206 55.2819 0.34141C55.3481 0.4304 55.3954 0.530926 55.4207 0.63722C55.4461 0.743513 55.4488 0.85349 55.4292 0.96084C55.4096 1.06819 55.3677 1.1708 55.3057 1.26279C55.2442 1.35477 55.1638 1.43433 55.0696 1.49689L50.5992 4.49832L55.0696 7.49978C55.2592 7.62672 55.3881 7.81955 55.4277 8.03606C55.4677 8.25261 55.415 8.47522 55.2819 8.65526C55.145 8.83182 54.9411 8.95117 54.7131 8.98799C54.485 9.02481 54.2507 8.97621 54.06 8.85252L49.3623 5.71019V8.17615C49.3623 8.28376 49.34 8.39035 49.2961 8.48974C49.2527 8.58909 49.1884 8.67937 49.108 8.75532C49.0273 8.83123 48.9315 8.89137 48.8265 8.93223C48.7211 8.97312 48.6084 8.9939 48.4946 8.99343C48.2642 8.99347 48.043 8.90769 47.8792 8.75469C47.7154 8.60173 47.6219 8.39387 47.6192 8.17615V0.859261C47.6211 0.640272 47.7138 0.430767 47.8777 0.275911C48.0415 0.121055 48.263 0.0332428 48.4946 0.0314024Z" fill="#117DC1"/>
<path fill-rule="evenodd" clip-rule="evenodd" d="M61.2185 1.65827V8.17795C61.2166 8.39602 61.1273 8.60455 60.97 8.75841C60.8127 8.91227 60.6 8.99906 60.3777 9C60.2677 9.00047 60.1581 8.97953 60.0562 8.93845C59.9542 8.89732 59.8616 8.83686 59.7835 8.76048C59.7054 8.6841 59.6435 8.59332 59.6012 8.49334C59.5589 8.3934 59.5369 8.28618 59.5369 8.17795V1.65827H57.3108C57.0869 1.65827 56.8723 1.57152 56.7135 1.41689C56.5546 1.26227 56.4646 1.05228 56.4627 0.832676C56.4646 0.612411 56.5542 0.40169 56.7131 0.245931C56.8716 0.0901737 57.0862 0.00185108 57.3108 0H63.445C63.5558 0.000464322 63.6654 0.0223705 63.7677 0.0644678C63.87 0.106565 63.9627 0.16803 64.0408 0.245351C64.1189 0.322672 64.1808 0.414337 64.2227 0.515109C64.265 0.615882 64.2862 0.723792 64.2858 0.832676C64.2858 1.05164 64.1973 1.26163 64.0396 1.41646C63.8819 1.57129 63.6681 1.65827 63.445 1.65827H61.2185Z" fill="#117DC1"/>
<path fill-rule="evenodd" clip-rule="evenodd" d="M93.8719 3.61414H97.075C98.2061 3.61414 98.6353 3.65304 98.6353 2.66994C98.6353 1.96267 98.3765 1.66208 97.075 1.66208H93.8719V3.61414ZM93.8719 7.34498H97.9111C98.4946 7.21769 98.6353 6.92061 98.6353 6.40076C98.6353 5.41769 98.2061 5.4601 97.075 5.4601H93.8719V7.35206V7.34498ZM97.9865 9C96.3111 9 94.6226 9 92.9473 9C92.7446 9.00094 92.5496 8.91513 92.405 8.76138C92.2607 8.6076 92.1788 8.39841 92.1769 8.17955V0.83104C92.1776 0.61153 92.2588 0.40122 92.4023 0.245671C92.5461 0.0901221 92.7407 0.00185834 92.9442 0C94.3669 0 95.8553 0 97.2553 0C98.6553 0 99.9961 0.583497 99.9961 2.34106C100.018 2.91485 99.9465 3.48837 99.783 4.03497C99.7484 4.12983 99.7053 4.221 99.6549 4.30728C99.6161 4.38613 99.5988 4.4755 99.6061 4.5646C99.613 4.65374 99.6438 4.73873 99.6946 4.80944C99.7365 4.90015 99.7738 4.99343 99.8057 5.0888C99.9507 5.6151 100.015 6.16336 99.9961 6.71197C99.9849 7.29423 99.7723 7.85093 99.3996 8.27245C99.0273 8.69396 98.5219 8.94976 97.983 8.9894L97.9865 9Z" fill="#117DC1"/>
<path fill-rule="evenodd" clip-rule="evenodd" d="M40.4838 0.257814C39.2181 0.686716 38.8519 1.15713 38.805 2.78972C38.7815 3.68212 38.7277 6.33162 38.8723 7.07529C39.3054 9.19906 43.1469 9.27168 45.0742 8.68367C46.31 8.30321 46.5515 7.7636 46.575 6.18981C46.5988 5.02764 46.575 3.98649 46.5988 3.1114C46.5988 1.38195 46.2192 0.320074 44.3892 0.109082C43.2373 -0.0327331 41.5046 -0.0846165 40.4808 0.257814H40.4838ZM45.0911 6.55298V2.65137C45.1211 1.5549 43.5361 1.69671 42.7404 1.69671C41.8673 1.69671 40.3431 1.60332 40.3431 2.65137V6.55298C40.3431 7.09951 41.0146 7.30358 41.7769 7.35891C42.4758 7.38384 43.1758 7.36306 43.8719 7.29665C44.5838 7.24132 45.0473 7.03726 45.0777 6.54609L45.0911 6.55298Z" fill="#117DC1"/>
<path fill-rule="evenodd" clip-rule="evenodd" d="M67.0158 0.257814C65.7538 0.686716 65.3804 1.15713 65.3335 2.78972C65.31 3.68212 65.2592 6.33162 65.4108 7.07529C65.8346 9.19906 69.6904 9.27168 71.6146 8.68367C72.8527 8.30321 73.0985 7.7636 73.1288 6.18981C73.1288 5.02764 73.1288 3.98649 73.1288 3.1114C73.1454 1.38195 72.7485 0.320074 70.9185 0.109082C69.7677 -0.0327331 68.035 -0.0846165 67.0023 0.257814H67.0158ZM71.625 6.55298V2.65137C71.655 1.5549 70.0638 1.69671 69.2696 1.69671C68.3985 1.69671 66.8677 1.60332 66.8677 2.65137V6.55298C66.8677 7.09951 67.5404 7.30358 68.3142 7.35891C69.0111 7.38388 69.7092 7.3631 70.4035 7.29665C71.1204 7.24132 71.5811 7.03726 71.6146 6.54609L71.625 6.55298Z" fill="#117DC1"/>
<path fill-rule="evenodd" clip-rule="evenodd" d="M85.0396 0.257814C83.77 0.686716 83.4069 1.15713 83.36 2.78972C83.34 3.68212 83.2862 6.33162 83.4308 7.07529C83.8639 9.19906 87.7035 9.27168 89.6316 8.68367C90.8712 8.30321 91.1131 7.7636 91.1366 6.18981C91.1566 5.02764 91.1366 3.98649 91.1566 3.1114C91.1566 1.38195 90.7769 0.320074 88.9496 0.109082C87.7942 -0.0327331 86.0642 -0.0846165 85.0396 0.257814ZM89.6619 6.55298V2.65137C89.6919 1.5549 88.1031 1.69671 87.3104 1.69671C86.4369 1.69671 84.9085 1.60332 84.9085 2.65137V6.55298C84.9085 7.09951 85.5804 7.30358 86.3462 7.35891C87.0446 7.38399 87.7435 7.36321 88.4393 7.29665C89.1546 7.24132 89.6181 7.03726 89.6485 6.54609L89.6619 6.55298Z" fill="#117DC1"/>
<path fill-rule="evenodd" clip-rule="evenodd" d="M75.5897 0.0265361C77.4477 0.0265361 79.4154 -0.0863417 80.5593 0.153515C81.7035 0.39337 82.3131 1.13411 82.3131 2.62263C82.3131 5.09173 81.5546 5.79721 79.8723 5.98062C79.8239 5.98426 79.775 5.98426 79.7266 5.98062C78.7112 6.06882 77.4077 5.99827 75.7558 5.99827V8.17462C75.7558 8.39352 75.6723 8.60345 75.5239 8.75825C75.3754 8.91305 75.1739 9 74.9639 9C74.7539 9 74.5523 8.91305 74.4039 8.75825C74.255 8.60345 74.1716 8.39352 74.1716 8.17462V6.7637C74.1347 5.72666 74.1516 4.49914 74.1716 3.46918C74.1716 2.63321 74.1954 1.7408 74.1716 0.904833C74.1435 0.709799 74.1908 0.511094 74.3031 0.352367C74.4154 0.193638 74.5839 0.0878638 74.7708 0.0582777C75.0062 0.0246842 75.2443 0.0140515 75.4816 0.0265271L75.5897 0.0265361ZM79.7335 1.70553H75.7527V4.34395H79.2662C80.282 4.34395 80.81 4.2734 80.8573 3.0706C80.9046 1.86779 80.5562 1.73022 79.73 1.70553H79.7335Z" fill="#117DC1"/>
</g>
<defs>
<clipPath id="clip0_1_1362">
<rect width="100" height="9" fill="white"/>
</clipPath>
</defs>
</svg>
