<svg width="26" height="26" viewBox="0 0 26 26" fill="none" xmlns="http://www.w3.org/2000/svg">
<g clip-path="url(#clip0_1_1661)">
<path d="M22.1924 3.80758C19.737 1.35225 16.4724 0 13 0C9.52758 0 6.263 1.35225 3.80758 3.80758C1.35225 6.263 0 9.52758 0 13C0 16.4724 1.35225 19.737 3.80758 22.1924C6.263 24.6477 9.52758 26 13 26C15.3772 26 17.7032 25.3521 19.7266 24.1265C20.2063 23.8359 20.3597 23.2113 20.0691 22.7316C19.7784 22.2518 19.1538 22.0985 18.6741 22.3891C16.9683 23.4225 15.0061 23.9688 13 23.9688C6.9518 23.9688 2.03125 19.0482 2.03125 13C2.03125 6.9518 6.9518 2.03125 13 2.03125C19.0482 2.03125 23.9688 6.9518 23.9688 13C23.9688 15.1627 23.3256 17.2679 22.1088 19.0879C21.7971 19.5541 21.9224 20.1849 22.3886 20.4966C22.855 20.8085 23.4857 20.6831 23.7974 20.2168C25.2384 18.0616 26 15.566 26 13C26 9.52758 24.6477 6.263 22.1924 3.80758Z" fill="#39B6C0"/>
<path d="M11.9166 7.68952C11.2012 7.27443 10.3463 7.27301 9.62977 7.68576C8.91056 8.09988 8.4812 8.84347 8.4812 9.67481V16.3254C8.4812 17.1567 8.91056 17.9003 9.62977 18.3144C9.98697 18.5202 10.3784 18.623 10.7699 18.623C11.1638 18.623 11.5578 18.5188 11.9166 18.3106L17.6471 14.9854C18.3621 14.5704 18.789 13.8283 18.789 13.0001C18.789 12.1719 18.3621 11.4297 17.6471 11.0148L11.9166 7.68952ZM16.6276 13.2284L10.8971 16.5537C10.7923 16.6146 10.7013 16.5875 10.6435 16.5542C10.5836 16.5198 10.5125 16.4521 10.5125 16.3253V9.67481C10.5125 9.54801 10.5836 9.48037 10.6435 9.44594C10.6763 9.42705 10.7197 9.41024 10.7702 9.41024C10.8089 9.41024 10.8517 9.42009 10.8971 9.44644L16.6276 12.7717C16.7352 12.8341 16.7578 12.9303 16.7578 13.0001C16.7578 13.0698 16.7352 13.166 16.6276 13.2284Z" fill="#39B6C0"/>
</g>
<defs>
<clipPath id="clip0_1_1661">
<rect width="26" height="26" fill="white"/>
</clipPath>
</defs>
</svg>
