<svg width="12" height="12" viewBox="0 0 12 12" fill="none" xmlns="http://www.w3.org/2000/svg">
<g clip-path="url(#clip0_1_1684)">
<path d="M11.9826 4.62336C11.9413 4.49607 11.8313 4.40331 11.6989 4.38409L7.97884 3.8435L6.31513 0.472572C6.25593 0.352572 6.1337 0.276611 5.9999 0.276611C5.86607 0.276611 5.74387 0.352572 5.68464 0.472572L4.02087 3.8435L0.300881 4.38409C0.168484 4.40331 0.0584449 4.49607 0.0171013 4.62334C-0.0242657 4.75063 0.0102342 4.89034 0.10607 4.98373L2.79781 7.60765L2.16247 11.3127C2.13983 11.4446 2.19406 11.5779 2.30232 11.6566C2.36356 11.701 2.4361 11.7237 2.50899 11.7237C2.56496 11.7237 2.62111 11.7103 2.67254 11.6833L5.99987 9.93397L9.32707 11.6833C9.44555 11.7455 9.58906 11.7352 9.69731 11.6565C9.80557 11.5779 9.85983 11.4446 9.83721 11.3127L9.20166 7.60765L11.8937 4.98371C11.9895 4.89034 12.024 4.75063 11.9826 4.62336Z" fill="#C9D2EA" fill-opacity="0.78"/>
</g>
<defs>
<clipPath id="clip0_1_1684">
<rect width="12" height="12" fill="white"/>
</clipPath>
</defs>
</svg>
