<svg width="230" height="342" viewBox="0 0 230 342" fill="none" xmlns="http://www.w3.org/2000/svg">
<path d="M9.982 0.72H13.846V27.262H19.412V32H2.392V27.262H8.648V6.102L2.392 8.448V3.618L9.982 0.72ZM24.6715 0.72H43.9455V5.412H29.5015L29.0415 12.956C30.5441 12.588 32.1235 12.404 33.7795 12.404C37.1221 12.404 39.8975 13.2167 42.1055 14.842C44.3135 16.4367 45.4175 18.9513 45.4175 22.386C45.4175 25.6367 44.2061 28.1513 41.7835 29.93C39.3915 31.7087 36.3861 32.598 32.7675 32.598C28.9955 32.598 25.6528 31.8927 22.7395 30.482V25.56C25.3768 27.0933 28.5201 27.86 32.1695 27.86C34.5615 27.86 36.4781 27.3847 37.9195 26.434C39.3915 25.4833 40.1275 24.1187 40.1275 22.34C40.1275 18.5987 37.2908 16.728 31.6175 16.728C28.9801 16.728 26.3275 17.188 23.6595 18.108L24.6715 0.72ZM70.0418 14.106C69.8578 16.9887 69.6125 19.4573 69.3058 21.512C68.9992 23.5667 68.5392 25.468 67.9258 27.216C67.3125 28.9333 66.4998 30.2367 65.4878 31.126C64.5065 31.9847 63.2952 32.414 61.8538 32.414C60.9032 32.414 59.8912 32.2147 58.8178 31.816V27.952C59.3392 28.136 59.8145 28.228 60.2438 28.228C61.9918 28.228 63.2185 26.71 63.9238 23.674C64.6598 20.6073 65.1505 16.0227 65.3958 9.92H82.4158V32H77.4938V14.106H70.0418ZM87.1883 20.96C87.1883 19.0587 87.5257 17.3413 88.2003 15.808C88.875 14.244 89.7643 13.0173 90.8683 12.128C91.9723 11.208 93.1683 10.518 94.4563 10.058C95.7443 9.56733 97.0477 9.322 98.3663 9.322C100.053 9.322 101.571 9.58267 102.92 10.104C104.3 10.6253 105.404 11.3307 106.232 12.22C107.06 13.1093 107.735 14.1367 108.256 15.302C108.778 16.4673 109.054 17.694 109.084 18.982C109.115 20.2393 109.008 21.512 108.762 22.8H92.1563C92.4017 24.6707 93.3217 26.0813 94.9163 27.032C96.511 27.952 98.4123 28.412 100.62 28.412C103.135 28.412 105.466 27.8907 107.612 26.848V31.08C105.496 32.092 102.859 32.598 99.7003 32.598C96.1123 32.598 93.1223 31.586 90.7303 29.562C88.369 27.538 87.1883 24.6707 87.1883 20.96ZM104.346 19.12C104.53 17.8627 104.147 16.6053 103.196 15.348C102.276 14.06 100.743 13.416 98.5963 13.416C96.8483 13.416 95.3457 13.922 94.0883 14.934C92.8617 15.946 92.2023 17.3413 92.1103 19.12H104.346ZM123.578 32H118.656V14.244H111.02V9.92H131.168V14.244H123.578V32ZM4.416 52.544L7.008 46.32H8.368L4.592 55.152C3.856 56.8587 2.89067 57.712 1.696 57.712C1.408 57.712 1.13067 57.6747 0.864 57.6V56.496C1.088 56.56 1.312 56.592 1.536 56.592C2.35733 56.592 3.01867 55.968 3.52 54.72L3.808 54.016L0.16 46.32H1.52L4.416 52.544ZM8.98413 50.192C8.98413 49.52 9.10679 48.9173 9.35213 48.384C9.59746 47.8507 9.91746 47.424 10.3121 47.104C10.7175 46.784 11.1601 46.544 11.6401 46.384C12.1308 46.2133 12.6321 46.128 13.1441 46.128C14.0935 46.128 14.8828 46.336 15.5121 46.752V48C14.9255 47.5413 14.1895 47.312 13.3041 47.312C12.4721 47.312 11.7575 47.552 11.1601 48.032C10.5628 48.512 10.2641 49.2213 10.2641 50.16C10.2641 51.088 10.5575 51.7973 11.1441 52.288C11.7415 52.768 12.4508 53.008 13.2721 53.008C14.1255 53.008 14.8988 52.8 15.5921 52.384V53.664C14.8668 54.016 14.0348 54.192 13.0961 54.192C11.9868 54.192 11.0215 53.8453 10.2001 53.152C9.38946 52.4587 8.98413 51.472 8.98413 50.192ZM18.7453 54H17.4653V46.32H24.4733V54H23.1933V47.504H18.7453V54ZM26.3123 50.16C26.3123 48.9013 26.6963 47.9147 27.4643 47.2C28.2429 46.4853 29.1336 46.128 30.1363 46.128C31.0749 46.128 31.8483 46.3627 32.4563 46.832C33.0749 47.3013 33.4803 47.8827 33.6723 48.576C33.8643 49.2587 33.8749 49.9733 33.7043 50.72H27.5923C27.6669 51.4773 28.0029 52.048 28.6003 52.432C29.1976 52.816 29.9176 53.008 30.7603 53.008C31.6989 53.008 32.5416 52.8 33.2883 52.384V53.632C32.5736 54.0053 31.6669 54.192 30.5683 54.192C29.3523 54.192 28.3389 53.8453 27.5283 53.152C26.7176 52.4587 26.3123 51.4613 26.3123 50.16ZM32.5683 49.6C32.6003 49.376 32.5843 49.1413 32.5203 48.896C32.4563 48.6507 32.3389 48.4053 32.1683 48.16C32.0083 47.9147 31.7576 47.712 31.4163 47.552C31.0749 47.392 30.6749 47.312 30.2163 47.312C29.5229 47.312 28.9203 47.5147 28.4083 47.92C27.9069 48.3253 27.6349 48.8853 27.5923 49.6H32.5683ZM46.2946 54H35.5746V46.32H36.8546V52.816H40.2946V46.32H41.5746V52.816H45.0146V46.32H46.2946V54ZM49.9484 54H48.6684V46.32H49.9484V49.568H54.3964V46.32H55.6764V54H54.3964V50.752H49.9484V54ZM58.7314 53.12C57.9207 52.3947 57.5154 51.408 57.5154 50.16C57.5154 48.912 57.9207 47.9307 58.7314 47.216C59.542 46.4907 60.502 46.128 61.6114 46.128C62.7314 46.128 63.6914 46.4907 64.4914 47.216C65.302 47.9307 65.7074 48.912 65.7074 50.16C65.7074 51.408 65.302 52.3947 64.4914 53.12C63.6914 53.8347 62.7314 54.192 61.6114 54.192C60.502 54.192 59.542 53.8347 58.7314 53.12ZM63.6274 52.224C64.1607 51.712 64.4274 51.024 64.4274 50.16C64.4274 49.296 64.1607 48.6133 63.6274 48.112C63.094 47.6 62.422 47.344 61.6114 47.344C60.8007 47.344 60.1287 47.6 59.5954 48.112C59.062 48.6133 58.7954 49.296 58.7954 50.16C58.7954 51.024 59.062 51.712 59.5954 52.224C60.1287 52.7253 60.8007 52.976 61.6114 52.976C62.422 52.976 63.094 52.7253 63.6274 52.224ZM73.3194 44.464C72.69 44.912 71.9434 45.136 71.0794 45.136C70.2154 45.136 69.4687 44.912 68.8394 44.464V43.312C69.554 43.7813 70.3007 44.016 71.0794 44.016C71.858 44.016 72.6047 43.7813 73.3194 43.312V44.464ZM68.6314 54H67.5434V46.32H68.8234V51.936L73.5274 46.32H74.6154V54H73.3354V48.384L68.6314 54ZM82.1173 47.6C82.9813 46.6187 84.0159 46.128 85.2213 46.128C86.3199 46.128 87.2319 46.512 87.9573 47.28C88.6933 48.048 89.0613 49.008 89.0613 50.16C89.0613 51.312 88.6933 52.272 87.9573 53.04C87.2319 53.808 86.3199 54.192 85.2213 54.192C84.0053 54.192 83.0133 53.744 82.2453 52.848V57.52H80.9653V46.32H82.1173V47.6ZM86.9973 52.224C87.5199 51.7013 87.7812 51.0133 87.7812 50.16C87.7812 49.3067 87.5199 48.6187 86.9973 48.096C86.4853 47.5733 85.8453 47.312 85.0773 47.312C84.4266 47.312 83.8506 47.4933 83.3493 47.856C82.8479 48.2187 82.4799 48.6667 82.2453 49.2V51.12C82.4799 51.6533 82.8479 52.1013 83.3493 52.464C83.8506 52.8267 84.4266 53.008 85.0773 53.008C85.8453 53.008 86.4853 52.7467 86.9973 52.224ZM97.1428 52.4C97.1428 52.7947 97.3401 52.992 97.7348 52.992C97.9054 52.992 98.1028 52.9547 98.3268 52.88V53.92C98.0068 54.0373 97.6868 54.096 97.3668 54.096C96.6308 54.096 96.1614 53.7867 95.9588 53.168C95.1374 53.8507 94.1401 54.192 92.9668 54.192C92.2201 54.192 91.5801 53.9947 91.0468 53.6C90.5241 53.1947 90.2628 52.6133 90.2628 51.856C90.2628 50.9493 90.5988 50.2933 91.2708 49.888C91.9534 49.472 92.7748 49.264 93.7348 49.264C94.4388 49.264 95.1481 49.344 95.8628 49.504V49.232C95.8628 48.6453 95.6708 48.1813 95.2868 47.84C94.9028 47.488 94.3641 47.312 93.6708 47.312C92.7001 47.312 91.7668 47.504 90.8708 47.888V46.64C91.8734 46.2987 92.8494 46.128 93.7988 46.128C94.8441 46.128 95.6601 46.4107 96.2468 46.976C96.8441 47.5307 97.1428 48.336 97.1428 49.392V52.4ZM91.5748 51.792C91.5748 52.2187 91.7348 52.544 92.0548 52.768C92.3854 52.9813 92.7801 53.088 93.2388 53.088C94.2948 53.088 95.1694 52.7147 95.8628 51.968V50.56C95.1374 50.4107 94.4868 50.336 93.9108 50.336C93.2601 50.336 92.7054 50.4533 92.2468 50.688C91.7988 50.912 91.5748 51.28 91.5748 51.792ZM107.204 50.384C107.204 51.568 106.841 52.5013 106.116 53.184C105.401 53.856 104.457 54.192 103.284 54.192C102.089 54.192 101.124 53.7973 100.388 53.008C99.6623 52.2187 99.2996 51.1147 99.2996 49.696C99.2996 48.4587 99.513 47.392 99.9396 46.496C100.366 45.6 100.942 44.928 101.668 44.48C102.158 44.1813 102.665 43.9467 103.188 43.776C103.721 43.5947 104.158 43.4827 104.5 43.44C104.852 43.3973 105.214 43.312 105.588 43.184C105.961 43.0453 106.27 42.8533 106.516 42.608V43.952C106.217 44.1653 105.849 44.3253 105.412 44.432C104.974 44.528 104.489 44.6453 103.956 44.784C103.422 44.9227 102.91 45.136 102.42 45.424C101.94 45.712 101.566 46.0747 101.3 46.512C101.033 46.9493 100.798 47.472 100.596 48.08C100.873 47.6533 101.268 47.3067 101.78 47.04C102.292 46.7733 102.841 46.64 103.428 46.64C104.462 46.64 105.348 46.9867 106.084 47.68C106.83 48.3733 107.204 49.2747 107.204 50.384ZM100.58 50.416C100.58 51.152 100.825 51.7653 101.316 52.256C101.806 52.736 102.452 52.976 103.252 52.976C104.073 52.976 104.724 52.736 105.204 52.256C105.684 51.776 105.924 51.1627 105.924 50.416C105.924 49.6693 105.684 49.056 105.204 48.576C104.724 48.096 104.073 47.856 103.252 47.856C102.484 47.856 101.844 48.1173 101.332 48.64C100.83 49.152 100.58 49.744 100.58 50.416ZM109.747 53.12C108.936 52.3947 108.531 51.408 108.531 50.16C108.531 48.912 108.936 47.9307 109.747 47.216C110.558 46.4907 111.518 46.128 112.627 46.128C113.747 46.128 114.707 46.4907 115.507 47.216C116.318 47.9307 116.723 48.912 116.723 50.16C116.723 51.408 116.318 52.3947 115.507 53.12C114.707 53.8347 113.747 54.192 112.627 54.192C111.518 54.192 110.558 53.8347 109.747 53.12ZM114.643 52.224C115.176 51.712 115.443 51.024 115.443 50.16C115.443 49.296 115.176 48.6133 114.643 48.112C114.11 47.6 113.438 47.344 112.627 47.344C111.816 47.344 111.144 47.6 110.611 48.112C110.078 48.6133 109.811 49.296 109.811 50.16C109.811 51.024 110.078 51.712 110.611 52.224C111.144 52.7253 111.816 52.976 112.627 52.976C113.438 52.976 114.11 52.7253 114.643 52.224ZM121.509 54H120.229V47.504H117.397V46.32H124.325V47.504H121.509V54ZM129.426 54H125.778V46.32H127.058V49.008H129.426C130.343 49.008 131.068 49.2427 131.602 49.712C132.135 50.1813 132.402 50.7787 132.402 51.504C132.402 52.2293 132.135 52.8267 131.602 53.296C131.068 53.7653 130.343 54 129.426 54ZM127.058 50.16V52.848H129.266C129.842 52.848 130.29 52.736 130.61 52.512C130.94 52.288 131.106 51.952 131.106 51.504C131.106 51.056 130.94 50.72 130.61 50.496C130.29 50.272 129.842 50.16 129.266 50.16H127.058ZM135.17 54H133.89V46.32H135.17V54Z" fill="white"/>
<path d="M3.582 125.296H6.678C9.894 125.296 11.502 126.586 11.502 129.166C11.502 131.722 9.894 133 6.678 133H1.53V120.4H10.512V122.29H3.582V125.296ZM3.582 131.128H6.714C7.098 131.128 7.428 131.104 7.704 131.056C7.992 131.008 8.274 130.924 8.55 130.804C8.838 130.672 9.054 130.468 9.198 130.192C9.342 129.916 9.414 129.574 9.414 129.166C9.414 128.746 9.336 128.398 9.18 128.122C9.036 127.846 8.826 127.642 8.55 127.51C8.274 127.378 7.992 127.288 7.704 127.24C7.428 127.192 7.098 127.168 6.714 127.168H3.582V131.128ZM14.1278 132.028C13.2158 131.224 12.7598 130.108 12.7598 128.68C12.7598 127.252 13.2158 126.136 14.1278 125.332C15.0518 124.528 16.1558 124.126 17.4398 124.126C18.7358 124.126 19.8398 124.528 20.7518 125.332C21.6638 126.136 22.1198 127.252 22.1198 128.68C22.1198 130.108 21.6638 131.224 20.7518 132.028C19.8398 132.832 18.7358 133.234 17.4398 133.234C16.1558 133.234 15.0518 132.832 14.1278 132.028ZM19.4018 130.714C19.9058 130.198 20.1578 129.52 20.1578 128.68C20.1578 127.84 19.9058 127.168 19.4018 126.664C18.8978 126.148 18.2438 125.89 17.4398 125.89C16.6238 125.89 15.9638 126.148 15.4598 126.664C14.9558 127.168 14.7038 127.84 14.7038 128.68C14.7038 129.52 14.9558 130.198 15.4598 130.714C15.9638 131.218 16.6238 131.47 17.4398 131.47C18.2438 131.47 18.8978 131.218 19.4018 130.714ZM27.2495 125.998C27.1775 127.126 27.0815 128.092 26.9615 128.896C26.8415 129.7 26.6615 130.444 26.4215 131.128C26.1815 131.8 25.8635 132.31 25.4675 132.658C25.0835 132.994 24.6095 133.162 24.0455 133.162C23.6735 133.162 23.2775 133.084 22.8575 132.928V131.416C23.0615 131.488 23.2475 131.524 23.4155 131.524C24.0995 131.524 24.5795 130.93 24.8555 129.742C25.1435 128.542 25.3355 126.748 25.4315 124.36H32.0915V133H30.1655V125.998H27.2495ZM33.959 128.68C33.959 127.936 34.091 127.264 34.355 126.664C34.619 126.052 34.967 125.572 35.399 125.224C35.831 124.864 36.299 124.594 36.803 124.414C37.307 124.222 37.817 124.126 38.333 124.126C38.993 124.126 39.587 124.228 40.115 124.432C40.655 124.636 41.087 124.912 41.411 125.26C41.735 125.608 41.999 126.01 42.203 126.466C42.407 126.922 42.515 127.402 42.527 127.906C42.539 128.398 42.497 128.896 42.401 129.4H35.903C35.999 130.132 36.359 130.684 36.983 131.056C37.607 131.416 38.351 131.596 39.215 131.596C40.199 131.596 41.111 131.392 41.951 130.984V132.64C41.123 133.036 40.091 133.234 38.855 133.234C37.451 133.234 36.281 132.838 35.345 132.046C34.421 131.254 33.959 130.132 33.959 128.68ZM40.673 127.96C40.745 127.468 40.595 126.976 40.223 126.484C39.863 125.98 39.263 125.728 38.423 125.728C37.739 125.728 37.151 125.926 36.659 126.322C36.179 126.718 35.921 127.264 35.885 127.96H40.673ZM43.7851 128.68C43.7851 127.936 43.9171 127.264 44.1811 126.664C44.4451 126.052 44.7931 125.572 45.2251 125.224C45.6571 124.864 46.1251 124.594 46.6291 124.414C47.1331 124.222 47.6431 124.126 48.1591 124.126C48.8191 124.126 49.4131 124.228 49.9411 124.432C50.4811 124.636 50.9131 124.912 51.2371 125.26C51.5611 125.608 51.8251 126.01 52.0291 126.466C52.2331 126.922 52.3411 127.402 52.3531 127.906C52.3651 128.398 52.3231 128.896 52.2271 129.4H45.7291C45.8251 130.132 46.1851 130.684 46.8091 131.056C47.4331 131.416 48.1771 131.596 49.0411 131.596C50.0251 131.596 50.9371 131.392 51.7771 130.984V132.64C50.9491 133.036 49.9171 133.234 48.6811 133.234C47.2771 133.234 46.1071 132.838 45.1711 132.046C44.2471 131.254 43.7851 130.132 43.7851 128.68ZM50.4991 127.96C50.5711 127.468 50.4211 126.976 50.0491 126.484C49.6891 125.98 49.0891 125.728 48.2491 125.728C47.5651 125.728 46.9771 125.926 46.4851 126.322C46.0051 126.718 45.7471 127.264 45.7111 127.96H50.4991ZM9.982 143.72H13.846V170.262H19.412V175H2.392V170.262H8.648V149.102L2.392 151.448V146.618L9.982 143.72ZM44.2675 151.678C44.2675 153.303 43.8381 154.729 42.9795 155.956C42.1515 157.183 41.0321 158.026 39.6215 158.486C41.3081 159.007 42.7188 159.927 43.8535 161.246C44.9881 162.565 45.5555 164.313 45.5555 166.49C45.5555 169.465 44.4208 171.734 42.1515 173.298C39.8821 174.831 37.0301 175.598 33.5955 175.598C29.5781 175.598 25.9595 174.908 22.7395 173.528V168.468C25.7448 170.124 29.2255 170.921 33.1815 170.86C38.0881 170.799 40.5415 169.158 40.5415 165.938C40.5415 162.81 38.3335 161.246 33.9175 161.246H28.9495V156.508L33.3195 156.554C35.2208 156.554 36.6775 156.186 37.6895 155.45C38.7321 154.683 39.2535 153.641 39.2535 152.322C39.2535 150.911 38.6708 149.823 37.5055 149.056C36.3708 148.259 34.7455 147.86 32.6295 147.86C29.3788 147.86 26.2661 148.719 23.2915 150.436V145.422C26.2048 143.889 29.5475 143.122 33.3195 143.122C36.6008 143.122 39.2381 143.889 41.2315 145.422C43.2555 146.955 44.2675 149.041 44.2675 151.678ZM64.2832 171.136C61.9219 168.131 60.7412 164.205 60.7412 159.36C60.7412 154.515 61.9219 150.605 64.2832 147.63C66.6445 144.625 70.1405 143.122 74.7712 143.122C79.4019 143.122 82.8979 144.625 85.2592 147.63C87.6205 150.605 88.8012 154.515 88.8012 159.36C88.8012 164.205 87.6205 168.131 85.2592 171.136C82.8979 174.111 79.4019 175.598 74.7712 175.598C70.1405 175.598 66.6445 174.111 64.2832 171.136ZM74.7712 170.814C80.5979 170.814 83.5112 166.996 83.5112 159.36C83.5112 151.724 80.5979 147.906 74.7712 147.906C68.9445 147.906 66.0312 151.724 66.0312 159.36C66.0312 166.996 68.9445 170.814 74.7712 170.814ZM96.7617 171.136C94.4004 168.131 93.2197 164.205 93.2197 159.36C93.2197 154.515 94.4004 150.605 96.7617 147.63C99.1231 144.625 102.619 143.122 107.25 143.122C111.88 143.122 115.376 144.625 117.738 147.63C120.099 150.605 121.28 154.515 121.28 159.36C121.28 164.205 120.099 168.131 117.738 171.136C115.376 174.111 111.88 175.598 107.25 175.598C102.619 175.598 99.1231 174.111 96.7617 171.136ZM107.25 170.814C113.076 170.814 115.99 166.996 115.99 159.36C115.99 151.724 113.076 147.906 107.25 147.906C101.423 147.906 98.5097 151.724 98.5097 159.36C98.5097 166.996 101.423 170.814 107.25 170.814ZM129.24 171.136C126.879 168.131 125.698 164.205 125.698 159.36C125.698 154.515 126.879 150.605 129.24 147.63C131.602 144.625 135.098 143.122 139.728 143.122C144.359 143.122 147.855 144.625 150.216 147.63C152.578 150.605 153.758 154.515 153.758 159.36C153.758 164.205 152.578 168.131 150.216 171.136C147.855 174.111 144.359 175.598 139.728 175.598C135.098 175.598 131.602 174.111 129.24 171.136ZM139.728 170.814C145.555 170.814 148.468 166.996 148.468 159.36C148.468 151.724 145.555 147.906 139.728 147.906C133.902 147.906 130.988 151.724 130.988 159.36C130.988 166.996 133.902 170.814 139.728 170.814ZM1.664 199.08H0.416V195.848H1.44C2.34667 194.248 2.784 192.072 2.752 189.32H8.48V195.848H9.6V199.08H8.352V197H1.664V199.08ZM3.984 190.472C3.93067 192.573 3.54667 194.365 2.832 195.848H7.2V190.472H3.984ZM11.8408 196.12C11.0301 195.395 10.6248 194.408 10.6248 193.16C10.6248 191.912 11.0301 190.931 11.8408 190.216C12.6514 189.491 13.6114 189.128 14.7208 189.128C15.8408 189.128 16.8008 189.491 17.6008 190.216C18.4114 190.931 18.8168 191.912 18.8168 193.16C18.8168 194.408 18.4114 195.395 17.6008 196.12C16.8008 196.835 15.8408 197.192 14.7208 197.192C13.6114 197.192 12.6514 196.835 11.8408 196.12ZM16.7368 195.224C17.2701 194.712 17.5368 194.024 17.5368 193.16C17.5368 192.296 17.2701 191.613 16.7368 191.112C16.2034 190.6 15.5314 190.344 14.7208 190.344C13.9101 190.344 13.2381 190.6 12.7048 191.112C12.1714 191.613 11.9048 192.296 11.9048 193.16C11.9048 194.024 12.1714 194.712 12.7048 195.224C13.2381 195.725 13.9101 195.976 14.7208 195.976C15.5314 195.976 16.2034 195.725 16.7368 195.224ZM24.9888 197H20.6528V189.32H24.8608C25.5541 189.32 26.1194 189.501 26.5568 189.864C27.0048 190.227 27.2288 190.739 27.2288 191.4C27.2288 191.784 27.1328 192.131 26.9408 192.44C26.7488 192.749 26.5034 192.968 26.2048 193.096C26.5568 193.213 26.8554 193.427 27.1008 193.736C27.3461 194.045 27.4688 194.424 27.4688 194.872C27.4688 195.523 27.2554 196.04 26.8288 196.424C26.4128 196.808 25.7994 197 24.9888 197ZM21.9328 193.672V195.88H24.8128C25.7301 195.88 26.1888 195.517 26.1888 194.792C26.1888 194.045 25.7461 193.672 24.8608 193.672H21.9328ZM21.9328 190.44V192.568H24.7328C25.5328 192.568 25.9328 192.221 25.9328 191.528C25.9328 191.133 25.8154 190.856 25.5808 190.696C25.3461 190.525 25.0634 190.44 24.7328 190.44H21.9328ZM30.1064 196.12C29.2957 195.395 28.8904 194.408 28.8904 193.16C28.8904 191.912 29.2957 190.931 30.1064 190.216C30.917 189.491 31.877 189.128 32.9864 189.128C34.1064 189.128 35.0664 189.491 35.8664 190.216C36.677 190.931 37.0824 191.912 37.0824 193.16C37.0824 194.408 36.677 195.395 35.8664 196.12C35.0664 196.835 34.1064 197.192 32.9864 197.192C31.877 197.192 30.917 196.835 30.1064 196.12ZM35.0024 195.224C35.5357 194.712 35.8024 194.024 35.8024 193.16C35.8024 192.296 35.5357 191.613 35.0024 191.112C34.469 190.6 33.797 190.344 32.9864 190.344C32.1757 190.344 31.5037 190.6 30.9704 191.112C30.437 191.613 30.1704 192.296 30.1704 193.16C30.1704 194.024 30.437 194.712 30.9704 195.224C31.5037 195.725 32.1757 195.976 32.9864 195.976C33.797 195.976 34.469 195.725 35.0024 195.224ZM41.4353 190.504C41.3819 191.347 41.3179 192.083 41.2433 192.712C41.1686 193.341 41.0619 193.949 40.9233 194.536C40.7846 195.112 40.6139 195.581 40.4113 195.944C40.2193 196.307 39.9739 196.595 39.6753 196.808C39.3766 197.021 39.0353 197.128 38.6513 197.128C38.3419 197.128 38.0326 197.069 37.7233 196.952V195.944C37.8939 196.008 38.0646 196.04 38.2353 196.04C38.8753 196.04 39.3393 195.48 39.6273 194.36C39.9259 193.229 40.1126 191.549 40.1873 189.32H45.8353V197H44.5553V190.504H41.4353ZM51.8476 197H48.1996V189.32H49.4796V192.008H51.8476C52.765 192.008 53.4903 192.243 54.0236 192.712C54.557 193.181 54.8236 193.779 54.8236 194.504C54.8236 195.229 54.557 195.827 54.0236 196.296C53.4903 196.765 52.765 197 51.8476 197ZM49.4796 193.16V195.848H51.6876C52.2636 195.848 52.7116 195.736 53.0316 195.512C53.3623 195.288 53.5276 194.952 53.5276 194.504C53.5276 194.056 53.3623 193.72 53.0316 193.496C52.7116 193.272 52.2636 193.16 51.6876 193.16H49.4796ZM57.7453 197H56.4653V189.32H57.7453V192.568H62.1933V189.32H63.4733V197H62.1933V193.752H57.7453V197ZM69.4883 197H65.8403V189.32H67.1203V192.008H69.4883C70.4056 192.008 71.1309 192.243 71.6643 192.712C72.1976 193.181 72.4643 193.779 72.4643 194.504C72.4643 195.229 72.1976 195.827 71.6643 196.296C71.1309 196.765 70.4056 197 69.4883 197ZM67.1203 193.16V195.848H69.3283C69.9043 195.848 70.3523 195.736 70.6723 195.512C71.0029 195.288 71.1683 194.952 71.1683 194.504C71.1683 194.056 71.0029 193.72 70.6723 193.496C70.3523 193.272 69.9043 193.16 69.3283 193.16H67.1203ZM75.2323 197H73.9523V189.32H75.2323V197ZM82.4219 189.32H83.8939L81.0779 193.048L84.0539 197H82.5819L80.3419 193.96L78.0859 197H76.6139L79.6059 193.048L76.7739 189.32H78.2459L80.3419 192.152L82.4219 189.32ZM90.6984 197H89.4184V189.32H96.4264V197H95.1464V190.504H90.6984V197ZM105.033 195.4C105.033 195.795 105.231 195.992 105.625 195.992C105.796 195.992 105.993 195.955 106.217 195.88V196.92C105.897 197.037 105.577 197.096 105.257 197.096C104.521 197.096 104.052 196.787 103.849 196.168C103.028 196.851 102.031 197.192 100.857 197.192C100.111 197.192 99.4707 196.995 98.9374 196.6C98.4147 196.195 98.1534 195.613 98.1534 194.856C98.1534 193.949 98.4894 193.293 99.1614 192.888C99.844 192.472 100.665 192.264 101.625 192.264C102.329 192.264 103.039 192.344 103.753 192.504V192.232C103.753 191.645 103.561 191.181 103.177 190.84C102.793 190.488 102.255 190.312 101.561 190.312C100.591 190.312 99.6574 190.504 98.7614 190.888V189.64C99.764 189.299 100.74 189.128 101.689 189.128C102.735 189.128 103.551 189.411 104.137 189.976C104.735 190.531 105.033 191.336 105.033 192.392V195.4ZM99.4654 194.792C99.4654 195.219 99.6254 195.544 99.9454 195.768C100.276 195.981 100.671 196.088 101.129 196.088C102.185 196.088 103.06 195.715 103.753 194.968V193.56C103.028 193.411 102.377 193.336 101.801 193.336C101.151 193.336 100.596 193.453 100.137 193.688C99.6894 193.912 99.4654 194.28 99.4654 194.792ZM115.494 199.08H114.246V197H107.59V189.32H108.87V195.816H113.078V189.32H114.358V195.816H115.494V199.08ZM118.288 197H117.2V189.32H118.48V194.936L123.184 189.32H124.272V197H122.992V191.384L118.288 197ZM126.109 193.16C126.109 191.901 126.493 190.915 127.261 190.2C128.04 189.485 128.93 189.128 129.933 189.128C130.872 189.128 131.645 189.363 132.253 189.832C132.872 190.301 133.277 190.883 133.469 191.576C133.661 192.259 133.672 192.973 133.501 193.72H127.389C127.464 194.477 127.8 195.048 128.397 195.432C128.994 195.816 129.714 196.008 130.557 196.008C131.496 196.008 132.338 195.8 133.085 195.384V196.632C132.37 197.005 131.464 197.192 130.365 197.192C129.149 197.192 128.136 196.845 127.325 196.152C126.514 195.459 126.109 194.461 126.109 193.16ZM132.365 192.6C132.397 192.376 132.381 192.141 132.317 191.896C132.253 191.651 132.136 191.405 131.965 191.16C131.805 190.915 131.554 190.712 131.213 190.552C130.872 190.392 130.472 190.312 130.013 190.312C129.32 190.312 128.717 190.515 128.205 190.92C127.704 191.325 127.432 191.885 127.389 192.6H132.365ZM136.652 197H135.372V189.32H136.652V192.568H141.1V189.32H142.38V197H141.1V193.752H136.652V197ZM147.947 197H146.667V190.504H143.835V189.32H150.763V190.504H147.947V197ZM152.653 196.12C151.843 195.395 151.437 194.408 151.437 193.16C151.437 191.912 151.843 190.931 152.653 190.216C153.464 189.491 154.424 189.128 155.533 189.128C156.653 189.128 157.613 189.491 158.413 190.216C159.224 190.931 159.629 191.912 159.629 193.16C159.629 194.408 159.224 195.395 158.413 196.12C157.613 196.835 156.653 197.192 155.533 197.192C154.424 197.192 153.464 196.835 152.653 196.12ZM157.549 195.224C158.083 194.712 158.349 194.024 158.349 193.16C158.349 192.296 158.083 191.613 157.549 191.112C157.016 190.6 156.344 190.344 155.533 190.344C154.723 190.344 154.051 190.6 153.517 191.112C152.984 191.613 152.717 192.296 152.717 193.16C152.717 194.024 152.984 194.712 153.517 195.224C154.051 195.725 154.723 195.976 155.533 195.976C156.344 195.976 157.016 195.725 157.549 195.224ZM165.801 197H161.465V189.32H165.673C166.367 189.32 166.932 189.501 167.369 189.864C167.817 190.227 168.041 190.739 168.041 191.4C168.041 191.784 167.945 192.131 167.753 192.44C167.561 192.749 167.316 192.968 167.017 193.096C167.369 193.213 167.668 193.427 167.913 193.736C168.159 194.045 168.281 194.424 168.281 194.872C168.281 195.523 168.068 196.04 167.641 196.424C167.225 196.808 166.612 197 165.801 197ZM162.745 193.672V195.88H165.625C166.543 195.88 167.001 195.517 167.001 194.792C167.001 194.045 166.559 193.672 165.673 193.672H162.745ZM162.745 190.44V192.568H165.545C166.345 192.568 166.745 192.221 166.745 191.528C166.745 191.133 166.628 190.856 166.393 190.696C166.159 190.525 165.876 190.44 165.545 190.44H162.745Z" fill="white"/>
<path d="M17.756 279.72H23.138V300.052H28.52V304.606H23.138V311H18.078V304.606H1.104V300.144L17.756 279.72ZM18.078 300.052V286.39L6.946 300.052H18.078ZM48.7481 311H43.8261V288.92H48.7481V297.66H52.3821L58.7301 288.92H64.3421L56.3381 299.868L65.2161 311H59.5581L52.2901 301.846H48.7481V311ZM77.2293 293.106C77.0453 295.989 76.8 298.457 76.4933 300.512C76.1867 302.567 75.7267 304.468 75.1133 306.216C74.5 307.933 73.6873 309.237 72.6753 310.126C71.694 310.985 70.4827 311.414 69.0413 311.414C68.0907 311.414 67.0787 311.215 66.0053 310.816V306.952C66.5267 307.136 67.002 307.228 67.4313 307.228C69.1793 307.228 70.406 305.71 71.1113 302.674C71.8473 299.607 72.338 295.023 72.5833 288.92H89.6033V311H84.6813V293.106H77.2293ZM99.9878 311H95.7558V288.92H100.678V303.364L112.5 288.92H116.732V311H111.81V296.556L99.9878 311ZM127.811 311H122.889V288.92H127.811V297.798H138.851V288.92H143.773V311H138.851V302.122H127.811V311ZM154.164 311H149.932V288.92H154.854V303.364L166.676 288.92H170.908V311H165.986V296.556L154.164 311ZM181.986 311H177.064V288.92H181.986V297.66H185.62L191.968 288.92H197.58L189.576 299.868L198.454 311H192.796L185.528 301.846H181.986V311ZM205.914 311H201.682V288.92H206.604V303.364L218.426 288.92H222.658V311H217.736V296.556L205.914 311ZM5.52 333H1.184V325.32H5.392C6.08533 325.32 6.65067 325.501 7.088 325.864C7.536 326.227 7.76 326.739 7.76 327.4C7.76 327.784 7.664 328.131 7.472 328.44C7.28 328.749 7.03467 328.968 6.736 329.096C7.088 329.213 7.38667 329.427 7.632 329.736C7.87733 330.045 8 330.424 8 330.872C8 331.523 7.78667 332.04 7.36 332.424C6.944 332.808 6.33067 333 5.52 333ZM2.464 329.672V331.88H5.344C6.26133 331.88 6.72 331.517 6.72 330.792C6.72 330.045 6.27733 329.672 5.392 329.672H2.464ZM2.464 326.44V328.568H5.264C6.064 328.568 6.464 328.221 6.464 327.528C6.464 327.133 6.34667 326.856 6.112 326.696C5.87733 326.525 5.59467 326.44 5.264 326.44H2.464ZM22.206 321.8H23.55V333H22.206V328.024H15.566V333H14.222V321.8H15.566V326.744H22.206V321.8ZM26.7158 332.12C25.9051 331.395 25.4998 330.408 25.4998 329.16C25.4998 327.912 25.9051 326.931 26.7158 326.216C27.5264 325.491 28.4864 325.128 29.5958 325.128C30.7158 325.128 31.6758 325.491 32.4758 326.216C33.2864 326.931 33.6918 327.912 33.6918 329.16C33.6918 330.408 33.2864 331.395 32.4758 332.12C31.6758 332.835 30.7158 333.192 29.5958 333.192C28.4864 333.192 27.5264 332.835 26.7158 332.12ZM31.6118 331.224C32.1451 330.712 32.4118 330.024 32.4118 329.16C32.4118 328.296 32.1451 327.613 31.6118 327.112C31.0784 326.6 30.4064 326.344 29.5958 326.344C28.7851 326.344 28.1131 326.6 27.5798 327.112C27.0464 327.613 26.7798 328.296 26.7798 329.16C26.7798 330.024 27.0464 330.712 27.5798 331.224C28.1131 331.725 28.7851 331.976 29.5958 331.976C30.4064 331.976 31.0784 331.725 31.6118 331.224ZM39.8638 333H35.5278V325.32H39.7358C40.4291 325.32 40.9944 325.501 41.4318 325.864C41.8798 326.227 42.1038 326.739 42.1038 327.4C42.1038 327.784 42.0078 328.131 41.8158 328.44C41.6238 328.749 41.3784 328.968 41.0798 329.096C41.4318 329.213 41.7304 329.427 41.9758 329.736C42.2211 330.045 42.3438 330.424 42.3438 330.872C42.3438 331.523 42.1304 332.04 41.7038 332.424C41.2878 332.808 40.6744 333 39.8638 333ZM36.8078 329.672V331.88H39.6878C40.6051 331.88 41.0638 331.517 41.0638 330.792C41.0638 330.045 40.6211 329.672 39.7358 329.672H36.8078ZM36.8078 326.44V328.568H39.6078C40.4078 328.568 40.8078 328.221 40.8078 327.528C40.8078 327.133 40.6904 326.856 40.4558 326.696C40.2211 326.525 39.9384 326.44 39.6078 326.44H36.8078ZM44.9814 332.12C44.1707 331.395 43.7654 330.408 43.7654 329.16C43.7654 327.912 44.1707 326.931 44.9814 326.216C45.792 325.491 46.752 325.128 47.8614 325.128C48.9814 325.128 49.9414 325.491 50.7414 326.216C51.552 326.931 51.9574 327.912 51.9574 329.16C51.9574 330.408 51.552 331.395 50.7414 332.12C49.9414 332.835 48.9814 333.192 47.8614 333.192C46.752 333.192 45.792 332.835 44.9814 332.12ZM49.8774 331.224C50.4107 330.712 50.6774 330.024 50.6774 329.16C50.6774 328.296 50.4107 327.613 49.8774 327.112C49.344 326.6 48.672 326.344 47.8614 326.344C47.0507 326.344 46.3787 326.6 45.8454 327.112C45.312 327.613 45.0454 328.296 45.0454 329.16C45.0454 330.024 45.312 330.712 45.8454 331.224C46.3787 331.725 47.0507 331.976 47.8614 331.976C48.672 331.976 49.344 331.725 49.8774 331.224ZM53.2654 329.192C53.2654 328.52 53.388 327.917 53.6334 327.384C53.8787 326.851 54.1987 326.424 54.5934 326.104C54.9987 325.784 55.4414 325.544 55.9214 325.384C56.412 325.213 56.9134 325.128 57.4254 325.128C58.3747 325.128 59.164 325.336 59.7934 325.752V327C59.2067 326.541 58.4707 326.312 57.5854 326.312C56.7534 326.312 56.0387 326.552 55.4414 327.032C54.844 327.512 54.5454 328.221 54.5454 329.16C54.5454 330.088 54.8387 330.797 55.4254 331.288C56.0227 331.768 56.732 332.008 57.5534 332.008C58.4067 332.008 59.18 331.8 59.8734 331.384V332.664C59.148 333.016 58.316 333.192 57.3774 333.192C56.268 333.192 55.3027 332.845 54.4814 332.152C53.6707 331.459 53.2654 330.472 53.2654 329.192ZM62.8345 333H61.7465V325.32H63.0265V330.936L67.7305 325.32H68.8185V333H67.5385V327.384L62.8345 333ZM78.688 329.384C78.688 330.568 78.3253 331.501 77.6 332.184C76.8853 332.856 75.9413 333.192 74.768 333.192C73.5733 333.192 72.608 332.797 71.872 332.008C71.1467 331.219 70.784 330.115 70.784 328.696C70.784 327.459 70.9973 326.392 71.424 325.496C71.8507 324.6 72.4267 323.928 73.152 323.48C73.6427 323.181 74.1493 322.947 74.672 322.776C75.2053 322.595 75.6427 322.483 75.984 322.44C76.336 322.397 76.6987 322.312 77.072 322.184C77.4453 322.045 77.7547 321.853 78 321.608V322.952C77.7013 323.165 77.3333 323.325 76.896 323.432C76.4587 323.528 75.9733 323.645 75.44 323.784C74.9067 323.923 74.3947 324.136 73.904 324.424C73.424 324.712 73.0507 325.075 72.784 325.512C72.5173 325.949 72.2827 326.472 72.08 327.08C72.3573 326.653 72.752 326.307 73.264 326.04C73.776 325.773 74.3253 325.64 74.912 325.64C75.9467 325.64 76.832 325.987 77.568 326.68C78.3147 327.373 78.688 328.275 78.688 329.384ZM72.064 329.416C72.064 330.152 72.3093 330.765 72.8 331.256C73.2907 331.736 73.936 331.976 74.736 331.976C75.5573 331.976 76.208 331.736 76.688 331.256C77.168 330.776 77.408 330.163 77.408 329.416C77.408 328.669 77.168 328.056 76.688 327.576C76.208 327.096 75.5573 326.856 74.736 326.856C73.968 326.856 73.328 327.117 72.816 327.64C72.3147 328.152 72.064 328.744 72.064 329.416ZM81.6314 333H80.5434V325.32H81.8234V330.936L86.5274 325.32H87.6154V333H86.3354V327.384L81.6314 333ZM91.1329 326.6C91.9969 325.619 93.0315 325.128 94.2369 325.128C95.3355 325.128 96.2475 325.512 96.9729 326.28C97.7089 327.048 98.0769 328.008 98.0769 329.16C98.0769 330.312 97.7089 331.272 96.9729 332.04C96.2475 332.808 95.3355 333.192 94.2369 333.192C93.0209 333.192 92.0289 332.744 91.2609 331.848V336.52H89.9809V325.32H91.1329V326.6ZM96.0129 331.224C96.5355 330.701 96.7969 330.013 96.7969 329.16C96.7969 328.307 96.5355 327.619 96.0129 327.096C95.5009 326.573 94.8609 326.312 94.0929 326.312C93.4422 326.312 92.8662 326.493 92.3649 326.856C91.8635 327.219 91.4955 327.667 91.2609 328.2V330.12C91.4955 330.653 91.8635 331.101 92.3649 331.464C92.8662 331.827 93.4422 332.008 94.0929 332.008C94.8609 332.008 95.5009 331.747 96.0129 331.224ZM99.3904 329.192C99.3904 328.52 99.513 327.917 99.7584 327.384C100.004 326.851 100.324 326.424 100.718 326.104C101.124 325.784 101.566 325.544 102.046 325.384C102.537 325.213 103.038 325.128 103.55 325.128C104.5 325.128 105.289 325.336 105.918 325.752V327C105.332 326.541 104.596 326.312 103.71 326.312C102.878 326.312 102.164 326.552 101.566 327.032C100.969 327.512 100.67 328.221 100.67 329.16C100.67 330.088 100.964 330.797 101.55 331.288C102.148 331.768 102.857 332.008 103.678 332.008C104.532 332.008 105.305 331.8 105.998 331.384V332.664C105.273 333.016 104.441 333.192 103.502 333.192C102.393 333.192 101.428 332.845 100.606 332.152C99.7957 331.459 99.3904 330.472 99.3904 329.192ZM109.152 333H107.872V325.32H109.152V328.52H110.704L113.136 325.32H114.624L111.712 329.144L114.976 333H113.472L110.656 329.704H109.152V333ZM115.328 329.16C115.328 327.901 115.712 326.915 116.48 326.2C117.259 325.485 118.149 325.128 119.152 325.128C120.091 325.128 120.864 325.363 121.472 325.832C122.091 326.301 122.496 326.883 122.688 327.576C122.88 328.259 122.891 328.973 122.72 329.72H116.608C116.683 330.477 117.019 331.048 117.616 331.432C118.213 331.816 118.933 332.008 119.776 332.008C120.715 332.008 121.557 331.8 122.304 331.384V332.632C121.589 333.005 120.683 333.192 119.584 333.192C118.368 333.192 117.355 332.845 116.544 332.152C115.733 331.459 115.328 330.461 115.328 329.16ZM121.584 328.6C121.616 328.376 121.6 328.141 121.536 327.896C121.472 327.651 121.355 327.405 121.184 327.16C121.024 326.915 120.773 326.712 120.432 326.552C120.091 326.392 119.691 326.312 119.232 326.312C118.539 326.312 117.936 326.515 117.424 326.92C116.923 327.325 116.651 327.885 116.608 328.6H121.584ZM129.663 333H128.575V325.32H129.855V330.936L134.559 325.32H135.647V333H134.367V327.384L129.663 333ZM143.629 333H142.285V321.8H143.629V326.648H146.173L149.549 321.8H151.085L147.277 327.256L151.421 333H149.885L146.221 327.928H143.629V333ZM151.578 329.16C151.578 327.901 151.962 326.915 152.73 326.2C153.509 325.485 154.399 325.128 155.402 325.128C156.341 325.128 157.114 325.363 157.722 325.832C158.341 326.301 158.746 326.883 158.938 327.576C159.13 328.259 159.141 328.973 158.97 329.72H152.858C152.933 330.477 153.269 331.048 153.866 331.432C154.463 331.816 155.183 332.008 156.026 332.008C156.965 332.008 157.807 331.8 158.554 331.384V332.632C157.839 333.005 156.933 333.192 155.834 333.192C154.618 333.192 153.605 332.845 152.794 332.152C151.983 331.459 151.578 330.461 151.578 329.16ZM157.834 328.6C157.866 328.376 157.85 328.141 157.786 327.896C157.722 327.651 157.605 327.405 157.434 327.16C157.274 326.915 157.023 326.712 156.682 326.552C156.341 326.392 155.941 326.312 155.482 326.312C154.789 326.312 154.186 326.515 153.674 326.92C153.173 327.325 152.901 327.885 152.858 328.6H157.834ZM162.056 333H160.84V325.32H162.232L165.032 329.576L167.832 325.32H169.224V333H168.008V327.208L165.512 331H164.552L162.056 327.208V333ZM171.062 329.16C171.062 327.901 171.446 326.915 172.214 326.2C172.993 325.485 173.884 325.128 174.886 325.128C175.825 325.128 176.598 325.363 177.206 325.832C177.825 326.301 178.23 326.883 178.422 327.576C178.614 328.259 178.625 328.973 178.454 329.72H172.342C172.417 330.477 172.753 331.048 173.35 331.432C173.948 331.816 174.668 332.008 175.51 332.008C176.449 332.008 177.292 331.8 178.038 331.384V332.632C177.324 333.005 176.417 333.192 175.318 333.192C174.102 333.192 173.089 332.845 172.278 332.152C171.468 331.459 171.062 330.461 171.062 329.16ZM177.318 328.6C177.35 328.376 177.334 328.141 177.27 327.896C177.206 327.651 177.089 327.405 176.918 327.16C176.758 326.915 176.508 326.712 176.166 326.552C175.825 326.392 175.425 326.312 174.966 326.312C174.273 326.312 173.67 326.515 173.158 326.92C172.657 327.325 172.385 327.885 172.342 328.6H177.318ZM181.477 326.6C182.341 325.619 183.375 325.128 184.581 325.128C185.679 325.128 186.591 325.512 187.317 326.28C188.053 327.048 188.421 328.008 188.421 329.16C188.421 330.312 188.053 331.272 187.317 332.04C186.591 332.808 185.679 333.192 184.581 333.192C183.365 333.192 182.373 332.744 181.605 331.848V336.52H180.325V325.32H181.477V326.6ZM186.357 331.224C186.879 330.701 187.141 330.013 187.141 329.16C187.141 328.307 186.879 327.619 186.357 327.096C185.845 326.573 185.205 326.312 184.437 326.312C183.786 326.312 183.21 326.493 182.709 326.856C182.207 327.219 181.839 327.667 181.605 328.2V330.12C181.839 330.653 182.207 331.101 182.709 331.464C183.21 331.827 183.786 332.008 184.437 332.008C185.205 332.008 185.845 331.747 186.357 331.224ZM190.95 332.12C190.139 331.395 189.734 330.408 189.734 329.16C189.734 327.912 190.139 326.931 190.95 326.216C191.761 325.491 192.721 325.128 193.83 325.128C194.95 325.128 195.91 325.491 196.71 326.216C197.521 326.931 197.926 327.912 197.926 329.16C197.926 330.408 197.521 331.395 196.71 332.12C195.91 332.835 194.95 333.192 193.83 333.192C192.721 333.192 191.761 332.835 190.95 332.12ZM195.846 331.224C196.379 330.712 196.646 330.024 196.646 329.16C196.646 328.296 196.379 327.613 195.846 327.112C195.313 326.6 194.641 326.344 193.83 326.344C193.019 326.344 192.347 326.6 191.814 327.112C191.281 327.613 191.014 328.296 191.014 329.16C191.014 330.024 191.281 330.712 191.814 331.224C192.347 331.725 193.019 331.976 193.83 331.976C194.641 331.976 195.313 331.725 195.846 331.224ZM204.098 333H199.762V325.32H203.97C204.663 325.32 205.229 325.501 205.666 325.864C206.114 326.227 206.338 326.739 206.338 327.4C206.338 327.784 206.242 328.131 206.05 328.44C205.858 328.749 205.613 328.968 205.314 329.096C205.666 329.213 205.965 329.427 206.21 329.736C206.455 330.045 206.578 330.424 206.578 330.872C206.578 331.523 206.365 332.04 205.938 332.424C205.522 332.808 204.909 333 204.098 333ZM201.042 329.672V331.88H203.922C204.839 331.88 205.298 331.517 205.298 330.792C205.298 330.045 204.855 329.672 203.97 329.672H201.042ZM201.042 326.44V328.568H203.842C204.642 328.568 205.042 328.221 205.042 327.528C205.042 327.133 204.925 326.856 204.69 326.696C204.455 326.525 204.173 326.44 203.842 326.44H201.042ZM209.216 332.12C208.405 331.395 208 330.408 208 329.16C208 327.912 208.405 326.931 209.216 326.216C210.026 325.491 210.986 325.128 212.096 325.128C213.216 325.128 214.176 325.491 214.976 326.216C215.786 326.931 216.192 327.912 216.192 329.16C216.192 330.408 215.786 331.395 214.976 332.12C214.176 332.835 213.216 333.192 212.096 333.192C210.986 333.192 210.026 332.835 209.216 332.12ZM214.112 331.224C214.645 330.712 214.912 330.024 214.912 329.16C214.912 328.296 214.645 327.613 214.112 327.112C213.578 326.6 212.906 326.344 212.096 326.344C211.285 326.344 210.613 326.6 210.08 327.112C209.546 327.613 209.28 328.296 209.28 329.16C209.28 330.024 209.546 330.712 210.08 331.224C210.613 331.725 211.285 331.976 212.096 331.976C212.906 331.976 213.578 331.725 214.112 331.224Z" fill="white"/>
</svg>
