<svg width="80" height="24" viewBox="0 0 80 24" fill="none" xmlns="http://www.w3.org/2000/svg">
<g clip-path="url(#clip0_1_1301)">
<path d="M76.2725 20.1199C77.842 20.1199 78.9537 19.8365 79.7821 19.2262V16.4578C78.9319 17.0464 77.9074 17.4169 76.4687 17.4169C74.0491 17.4169 73.0464 15.5423 73.0464 12.5777C73.0464 9.46052 74.2671 7.86924 76.4905 7.86924C77.7984 7.86924 79.0845 8.32701 79.7603 8.76297V5.88559C79.0409 5.49322 77.7984 5.20984 76.0981 5.20984C71.7603 5.20984 69.515 8.32701 69.515 12.6867C69.5368 17.4605 71.7385 20.1199 76.2725 20.1199ZM55.0627 18.8556V16.0872C54.0164 16.8066 52.2289 17.4387 50.5941 17.4387C48.109 17.4387 47.1717 16.2616 47.0191 13.8638H55.2153V12.0763C55.2153 7.0845 53.0137 5.20984 49.6349 5.20984C45.4932 5.20984 43.5314 8.3706 43.5314 12.7085C43.5314 17.7003 45.9946 20.1199 50.3107 20.1199C52.4687 20.1199 54.06 19.5314 55.0627 18.8556ZM23.9565 5.47142V11.139H19.4224V5.47142H16.0219V19.8365H19.4224V13.842H23.9565V19.8365H27.357V5.47142H23.9565ZM42.6813 17.1335H41.1772V5.47142H31.2807V6.69213C31.2807 10.2017 31.0627 14.7357 29.8638 17.1335H28.7739V23.1063H31.9129V19.8365H39.5205V23.1063H42.6595V17.1335H42.6813ZM65.8965 19.8365H69.7548L64.3052 12.0981L69.1009 5.47142H65.6785L60.8829 12.0981V5.47142H57.4823V19.8365H60.8829V12.7739L65.8965 19.8365ZM49.5477 7.86924C51.2262 7.86924 51.7494 9.26433 51.7494 11.0736V11.357H47.0191C47.1063 9.06815 47.9347 7.86924 49.5477 7.86924ZM37.7766 17.1335H32.981C33.9183 14.9755 34.1799 11.0518 34.1799 8.56679V8.13082H37.7766V17.1335Z" fill="black"/>
<path d="M13.188 19.8365H9.72207V2.6812H8.17439C5.3406 2.6812 3.85831 4.09809 3.85831 6.21253C3.85831 8.61035 4.88283 9.72207 6.99728 11.139L8.74114 12.3161L3.72752 19.8365H0L4.51226 13.1226C1.91826 11.2698 0.457766 9.46049 0.457766 6.40872C0.457766 2.59401 3.11717 0 8.15259 0H13.1662L13.188 19.8365Z" fill="#FC3F1D"/>
</g>
<defs>
<clipPath id="clip0_1_1301">
<rect width="80" height="23.1063" fill="white"/>
</clipPath>
</defs>
</svg>
